<mxfile modified="2024-07-07T18:56:03.627Z" host="app.diagrams.net" agent="Mozilla/5.0 (Windows NT 10.0; Win64; x64) AppleWebKit/537.36 (KHTML, like Gecko) Chrome/126.0.0.0 Safari/537.36" etag="4aQ2Dp7I1NJG5xvyfatl" version="24.6.4" type="device">
  <diagram id="Ht1M8jgEwFfnCIfOTk4-" name="Page-1">
    <mxGraphModel dx="2593" dy="933" grid="1" gridSize="10" guides="1" tooltips="1" connect="1" arrows="1" fold="1" page="0" pageScale="1" pageWidth="827" pageHeight="1169" math="0" shadow="0">
      <root>
        <mxCell id="0" />
        <mxCell id="1" parent="0" />
        <mxCell id="UEzPUAAOIrF-is8g5C7q-2" value="AWS Cloud" style="points=[[0,0],[0.25,0],[0.5,0],[0.75,0],[1,0],[1,0.25],[1,0.5],[1,0.75],[1,1],[0.75,1],[0.5,1],[0.25,1],[0,1],[0,0.75],[0,0.5],[0,0.25]];outlineConnect=0;gradientColor=none;html=1;whiteSpace=wrap;fontSize=12;fontStyle=0;shape=mxgraph.aws4.group;grIcon=mxgraph.aws4.group_aws_cloud_alt;strokeColor=#232F3E;fillColor=none;verticalAlign=top;align=left;spacingLeft=30;fontColor=#232F3E;dashed=0;container=1;pointerEvents=0;collapsible=0;recursiveResize=0;" parent="1" vertex="1">
          <mxGeometry x="-80" y="175" width="1180" height="705" as="geometry" />
        </mxCell>
        <mxCell id="UEzPUAAOIrF-is8g5C7q-59" style="edgeStyle=orthogonalEdgeStyle;rounded=0;orthogonalLoop=1;jettySize=auto;html=1;endArrow=open;endFill=0;strokeWidth=2;strokeColor=#545B64;startArrow=none;" parent="1" edge="1">
          <mxGeometry relative="1" as="geometry">
            <mxPoint x="104.00000000000023" y="439" as="sourcePoint" />
          </mxGeometry>
        </mxCell>
        <mxCell id="UEzPUAAOIrF-is8g5C7q-60" style="edgeStyle=orthogonalEdgeStyle;rounded=0;orthogonalLoop=1;jettySize=auto;html=1;endArrow=open;endFill=0;strokeWidth=2;strokeColor=#545B64;startArrow=none;" parent="1" edge="1">
          <mxGeometry relative="1" as="geometry">
            <mxPoint x="319.9999999999998" y="439" as="sourcePoint" />
          </mxGeometry>
        </mxCell>
        <mxCell id="UEzPUAAOIrF-is8g5C7q-61" value="" style="edgeStyle=orthogonalEdgeStyle;rounded=0;orthogonalLoop=1;jettySize=auto;html=1;endArrow=open;endFill=0;strokeWidth=2;strokeColor=#545B64;startArrow=none;" parent="1" edge="1">
          <mxGeometry relative="1" as="geometry">
            <mxPoint x="550" y="439" as="sourcePoint" />
          </mxGeometry>
        </mxCell>
        <mxCell id="UEzPUAAOIrF-is8g5C7q-69" style="edgeStyle=orthogonalEdgeStyle;rounded=0;orthogonalLoop=1;jettySize=auto;html=1;endArrow=open;endFill=0;strokeWidth=2;strokeColor=#545B64;startArrow=none;" parent="1" edge="1">
          <mxGeometry relative="1" as="geometry">
            <Array as="points">
              <mxPoint x="511" y="714" />
            </Array>
            <mxPoint x="511" y="478" as="sourcePoint" />
          </mxGeometry>
        </mxCell>
        <mxCell id="UEzPUAAOIrF-is8g5C7q-64" value="" style="edgeStyle=orthogonalEdgeStyle;rounded=0;orthogonalLoop=1;jettySize=auto;html=1;endArrow=open;endFill=0;strokeWidth=2;strokeColor=#545B64;startArrow=none;" parent="1" edge="1">
          <mxGeometry relative="1" as="geometry">
            <mxPoint x="842" y="439" as="sourcePoint" />
          </mxGeometry>
        </mxCell>
        <mxCell id="UEzPUAAOIrF-is8g5C7q-72" style="edgeStyle=orthogonalEdgeStyle;rounded=0;orthogonalLoop=1;jettySize=auto;html=1;endArrow=open;endFill=0;strokeWidth=2;strokeColor=#545B64;startArrow=none;" parent="1" edge="1">
          <mxGeometry relative="1" as="geometry">
            <Array as="points">
              <mxPoint x="803" y="231" />
            </Array>
            <mxPoint x="655" y="231.05882352941194" as="targetPoint" />
          </mxGeometry>
        </mxCell>
        <mxCell id="UEzPUAAOIrF-is8g5C7q-66" style="edgeStyle=orthogonalEdgeStyle;rounded=0;orthogonalLoop=1;jettySize=auto;html=1;endArrow=open;endFill=0;strokeWidth=2;strokeColor=#545B64;startArrow=none;" parent="1" edge="1">
          <mxGeometry relative="1" as="geometry">
            <mxPoint x="803" y="478" as="targetPoint" />
          </mxGeometry>
        </mxCell>
        <mxCell id="UEzPUAAOIrF-is8g5C7q-68" value="" style="edgeStyle=orthogonalEdgeStyle;rounded=0;orthogonalLoop=1;jettySize=auto;html=1;endArrow=open;endFill=0;strokeWidth=2;strokeColor=#545B64;startArrow=none;" parent="1" edge="1">
          <mxGeometry relative="1" as="geometry">
            <mxPoint x="670" y="713.5000000000002" as="targetPoint" />
          </mxGeometry>
        </mxCell>
        <mxCell id="UEzPUAAOIrF-is8g5C7q-67" style="edgeStyle=orthogonalEdgeStyle;rounded=0;orthogonalLoop=1;jettySize=auto;html=1;endArrow=open;endFill=0;strokeWidth=2;strokeColor=#545B64;startArrow=none;" parent="1" edge="1">
          <mxGeometry relative="1" as="geometry">
            <Array as="points">
              <mxPoint x="709" y="583" />
            </Array>
            <mxPoint x="764" y="583.0588235294119" as="targetPoint" />
          </mxGeometry>
        </mxCell>
        <mxCell id="UEzPUAAOIrF-is8g5C7q-70" style="edgeStyle=orthogonalEdgeStyle;rounded=0;orthogonalLoop=1;jettySize=auto;html=1;endArrow=open;endFill=0;strokeWidth=2;strokeColor=#545B64;startArrow=none;" parent="1" edge="1">
          <mxGeometry relative="1" as="geometry">
            <mxPoint x="748" y="713.5000000000002" as="sourcePoint" />
          </mxGeometry>
        </mxCell>
        <mxCell id="UEzPUAAOIrF-is8g5C7q-71" value="" style="edgeStyle=orthogonalEdgeStyle;rounded=0;orthogonalLoop=1;jettySize=auto;html=1;endArrow=open;endFill=0;strokeWidth=2;strokeColor=#545B64;startArrow=none;" parent="1" edge="1">
          <mxGeometry relative="1" as="geometry">
            <mxPoint x="905.0000000000005" y="713.5000000000002" as="sourcePoint" />
          </mxGeometry>
        </mxCell>
        <mxCell id="SCVMTBWpLvtzJIhz15lM-1" value="" style="line;strokeWidth=2;html=1;fontSize=14;" parent="1" vertex="1">
          <mxGeometry x="-360" y="140.5" width="1460" height="10" as="geometry" />
        </mxCell>
        <mxCell id="zz1IJL5PvDVAFTh64P6X-1" value="VPC" style="points=[[0,0],[0.25,0],[0.5,0],[0.75,0],[1,0],[1,0.25],[1,0.5],[1,0.75],[1,1],[0.75,1],[0.5,1],[0.25,1],[0,1],[0,0.75],[0,0.5],[0,0.25]];outlineConnect=0;gradientColor=none;html=1;whiteSpace=wrap;fontSize=12;fontStyle=0;container=1;pointerEvents=0;collapsible=0;recursiveResize=0;shape=mxgraph.aws4.group;grIcon=mxgraph.aws4.group_vpc2;strokeColor=#8C4FFF;fillColor=none;verticalAlign=top;align=left;spacingLeft=30;fontColor=#AAB7B8;dashed=0;" parent="1" vertex="1">
          <mxGeometry x="-10" y="210" width="1090" height="610" as="geometry" />
        </mxCell>
        <mxCell id="zz1IJL5PvDVAFTh64P6X-2" value="&lt;font style=&quot;font-size: 14px;&quot;&gt;&lt;b&gt;Private subnet 10.0.1.0/24&lt;/b&gt;&lt;/font&gt;&lt;div style=&quot;font-size: 14px;&quot;&gt;&lt;br&gt;&lt;/div&gt;" style="points=[[0,0],[0.25,0],[0.5,0],[0.75,0],[1,0],[1,0.25],[1,0.5],[1,0.75],[1,1],[0.75,1],[0.5,1],[0.25,1],[0,1],[0,0.75],[0,0.5],[0,0.25]];outlineConnect=0;gradientColor=none;html=1;whiteSpace=wrap;fontSize=12;fontStyle=0;container=1;pointerEvents=0;collapsible=0;recursiveResize=0;shape=mxgraph.aws4.group;grIcon=mxgraph.aws4.group_security_group;grStroke=0;strokeColor=#00A4A6;fillColor=#E6F6F7;verticalAlign=top;align=left;spacingLeft=30;fontColor=#147EBA;dashed=0;" parent="zz1IJL5PvDVAFTh64P6X-1" vertex="1">
          <mxGeometry x="748" y="357" width="320" height="200" as="geometry" />
        </mxCell>
        <mxCell id="zz1IJL5PvDVAFTh64P6X-4" value="&lt;b&gt;&lt;font style=&quot;font-size: 14px;&quot;&gt;EC2&lt;/font&gt;&lt;/b&gt;" style="outlineConnect=0;dashed=0;verticalLabelPosition=bottom;verticalAlign=top;align=center;html=1;shape=mxgraph.aws3.ec2;fillColor=#F58534;gradientColor=none;" parent="zz1IJL5PvDVAFTh64P6X-2" vertex="1">
          <mxGeometry x="25" y="59" width="76.5" height="93" as="geometry" />
        </mxCell>
        <mxCell id="zz1IJL5PvDVAFTh64P6X-6" value="Security group" style="fillColor=none;strokeColor=#DD3522;verticalAlign=top;fontStyle=0;fontColor=#DD3522;whiteSpace=wrap;html=1;" parent="zz1IJL5PvDVAFTh64P6X-2" vertex="1">
          <mxGeometry x="205" y="59" width="90" height="90" as="geometry" />
        </mxCell>
        <mxCell id="RDj6K1EUGKKzCEuKwQeV-4" value="" style="edgeStyle=none;orthogonalLoop=1;jettySize=auto;html=1;endArrow=classic;startArrow=classic;endSize=8;startSize=8;rounded=0;strokeWidth=2;" edge="1" parent="zz1IJL5PvDVAFTh64P6X-2">
          <mxGeometry width="100" relative="1" as="geometry">
            <mxPoint x="108" y="111" as="sourcePoint" />
            <mxPoint x="198" y="111" as="targetPoint" />
            <Array as="points" />
          </mxGeometry>
        </mxCell>
        <mxCell id="zz1IJL5PvDVAFTh64P6X-3" value="&lt;font style=&quot;font-size: 14px;&quot;&gt;&lt;b&gt;Public subnet 10.0.0.0/24&lt;/b&gt;&lt;/font&gt;" style="points=[[0,0],[0.25,0],[0.5,0],[0.75,0],[1,0],[1,0.25],[1,0.5],[1,0.75],[1,1],[0.75,1],[0.5,1],[0.25,1],[0,1],[0,0.75],[0,0.5],[0,0.25]];outlineConnect=0;gradientColor=none;html=1;whiteSpace=wrap;fontSize=12;fontStyle=0;container=1;pointerEvents=0;collapsible=0;recursiveResize=0;shape=mxgraph.aws4.group;grIcon=mxgraph.aws4.group_security_group;grStroke=0;strokeColor=#7AA116;fillColor=#F2F6E8;verticalAlign=top;align=left;spacingLeft=30;fontColor=#248814;dashed=0;" parent="zz1IJL5PvDVAFTh64P6X-1" vertex="1">
          <mxGeometry x="30" y="356" width="580" height="200" as="geometry" />
        </mxCell>
        <mxCell id="zz1IJL5PvDVAFTh64P6X-5" value="&lt;b&gt;&lt;font style=&quot;font-size: 14px;&quot;&gt;EC2&lt;/font&gt;&lt;/b&gt;" style="outlineConnect=0;dashed=0;verticalLabelPosition=bottom;verticalAlign=top;align=center;html=1;shape=mxgraph.aws3.ec2;fillColor=#F58534;gradientColor=none;" parent="zz1IJL5PvDVAFTh64P6X-3" vertex="1">
          <mxGeometry x="19" y="60" width="76.5" height="93" as="geometry" />
        </mxCell>
        <mxCell id="zz1IJL5PvDVAFTh64P6X-7" value="Security group" style="fillColor=none;strokeColor=#DD3522;verticalAlign=top;fontStyle=0;fontColor=#DD3522;whiteSpace=wrap;html=1;" parent="zz1IJL5PvDVAFTh64P6X-3" vertex="1">
          <mxGeometry x="173" y="73.5" width="80" height="70" as="geometry" />
        </mxCell>
        <mxCell id="zz1IJL5PvDVAFTh64P6X-8" value="&lt;font style=&quot;font-size: 14px;&quot;&gt;&lt;b&gt;Elastic IP&lt;/b&gt;&lt;/font&gt;&lt;div style=&quot;font-size: 14px;&quot;&gt;&lt;font style=&quot;font-size: 14px;&quot;&gt;&lt;b&gt;adress&lt;/b&gt;&lt;/font&gt;&lt;/div&gt;" style="outlineConnect=0;dashed=0;verticalLabelPosition=bottom;verticalAlign=top;align=center;html=1;shape=mxgraph.aws3.elastic_ip;fillColor=#F58534;gradientColor=none;" parent="zz1IJL5PvDVAFTh64P6X-3" vertex="1">
          <mxGeometry x="318" y="96" width="76.5" height="21" as="geometry" />
        </mxCell>
        <mxCell id="zz1IJL5PvDVAFTh64P6X-9" value="&lt;b style=&quot;font-size: 14px;&quot;&gt;&lt;font style=&quot;font-size: 14px;&quot;&gt;VPC NAT&lt;/font&gt;&lt;/b&gt;&lt;div style=&quot;font-size: 14px;&quot;&gt;&lt;b style=&quot;&quot;&gt;&lt;font style=&quot;font-size: 14px;&quot;&gt;gateway&lt;/font&gt;&lt;/b&gt;&lt;/div&gt;" style="outlineConnect=0;dashed=0;verticalLabelPosition=bottom;verticalAlign=top;align=center;html=1;shape=mxgraph.aws3.vpc_nat_gateway;fillColor=#F58534;gradientColor=none;" parent="zz1IJL5PvDVAFTh64P6X-3" vertex="1">
          <mxGeometry x="460" y="70.5" width="69" height="72" as="geometry" />
        </mxCell>
        <mxCell id="RDj6K1EUGKKzCEuKwQeV-13" style="edgeStyle=orthogonalEdgeStyle;rounded=0;orthogonalLoop=1;jettySize=auto;html=1;entryX=0.5;entryY=0;entryDx=0;entryDy=0;entryPerimeter=0;exitX=0.5;exitY=0.32;exitDx=0;exitDy=0;exitPerimeter=0;strokeWidth=2;" edge="1" parent="zz1IJL5PvDVAFTh64P6X-3" source="zz1IJL5PvDVAFTh64P6X-8" target="zz1IJL5PvDVAFTh64P6X-9">
          <mxGeometry relative="1" as="geometry">
            <Array as="points">
              <mxPoint x="356" y="32" />
              <mxPoint x="495" y="32" />
            </Array>
          </mxGeometry>
        </mxCell>
        <mxCell id="RDj6K1EUGKKzCEuKwQeV-6" value="&lt;b style=&quot;font-size: 14px;&quot;&gt;&lt;font style=&quot;font-size: 14px;&quot;&gt;Private&lt;/font&gt;&lt;/b&gt;&lt;div style=&quot;font-size: 14px;&quot;&gt;&lt;b style=&quot;&quot;&gt;&lt;font style=&quot;font-size: 14px;&quot;&gt;Route table&lt;/font&gt;&lt;/b&gt;&lt;/div&gt;" style="sketch=0;outlineConnect=0;fontColor=#232F3E;gradientColor=none;fillColor=#8C4FFF;strokeColor=none;dashed=0;verticalLabelPosition=bottom;verticalAlign=top;align=center;html=1;fontSize=12;fontStyle=0;aspect=fixed;pointerEvents=1;shape=mxgraph.aws4.route_table;" vertex="1" parent="zz1IJL5PvDVAFTh64P6X-1">
          <mxGeometry x="710" y="90" width="82.11" height="80" as="geometry" />
        </mxCell>
        <mxCell id="RDj6K1EUGKKzCEuKwQeV-5" value="&lt;b style=&quot;font-size: 14px;&quot;&gt;&lt;font style=&quot;font-size: 14px;&quot;&gt;Public&lt;/font&gt;&lt;/b&gt;&lt;div style=&quot;font-size: 14px;&quot;&gt;&lt;b style=&quot;&quot;&gt;&lt;font style=&quot;font-size: 14px;&quot;&gt;Route table&lt;/font&gt;&lt;/b&gt;&lt;/div&gt;" style="sketch=0;outlineConnect=0;fontColor=#232F3E;gradientColor=none;fillColor=#8C4FFF;strokeColor=none;dashed=0;verticalLabelPosition=bottom;verticalAlign=top;align=center;html=1;fontSize=12;fontStyle=0;aspect=fixed;pointerEvents=1;shape=mxgraph.aws4.route_table;" vertex="1" parent="zz1IJL5PvDVAFTh64P6X-1">
          <mxGeometry x="460" y="90" width="82.11" height="80" as="geometry" />
        </mxCell>
        <mxCell id="RDj6K1EUGKKzCEuKwQeV-8" style="edgeStyle=orthogonalEdgeStyle;rounded=0;orthogonalLoop=1;jettySize=auto;html=1;strokeWidth=2;" edge="1" parent="zz1IJL5PvDVAFTh64P6X-1" source="RDj6K1EUGKKzCEuKwQeV-7" target="zz1IJL5PvDVAFTh64P6X-2">
          <mxGeometry relative="1" as="geometry" />
        </mxCell>
        <mxCell id="RDj6K1EUGKKzCEuKwQeV-9" style="edgeStyle=orthogonalEdgeStyle;rounded=0;orthogonalLoop=1;jettySize=auto;html=1;exitX=0;exitY=0.5;exitDx=0;exitDy=0;exitPerimeter=0;strokeWidth=2;" edge="1" parent="zz1IJL5PvDVAFTh64P6X-1" source="RDj6K1EUGKKzCEuKwQeV-7" target="zz1IJL5PvDVAFTh64P6X-3">
          <mxGeometry relative="1" as="geometry" />
        </mxCell>
        <mxCell id="RDj6K1EUGKKzCEuKwQeV-7" value="&lt;div style=&quot;font-size: 14px;&quot;&gt;&lt;b style=&quot;&quot;&gt;&lt;font style=&quot;font-size: 14px;&quot;&gt;Default&lt;/font&gt;&lt;/b&gt;&lt;/div&gt;&lt;b style=&quot;font-size: 14px;&quot;&gt;&lt;font style=&quot;font-size: 14px;&quot;&gt;NACL&lt;/font&gt;&lt;/b&gt;" style="outlineConnect=0;dashed=0;verticalLabelPosition=bottom;verticalAlign=top;align=center;html=1;shape=mxgraph.aws3.network_access_controllist;fillColor=#F58534;gradientColor=none;" vertex="1" parent="zz1IJL5PvDVAFTh64P6X-1">
          <mxGeometry x="580" y="216" width="80" height="80" as="geometry" />
        </mxCell>
        <mxCell id="RDj6K1EUGKKzCEuKwQeV-11" style="edgeStyle=orthogonalEdgeStyle;rounded=0;orthogonalLoop=1;jettySize=auto;html=1;entryX=1.043;entryY=0.424;entryDx=0;entryDy=0;entryPerimeter=0;strokeWidth=2;" edge="1" parent="zz1IJL5PvDVAFTh64P6X-1" source="zz1IJL5PvDVAFTh64P6X-2" target="zz1IJL5PvDVAFTh64P6X-9">
          <mxGeometry relative="1" as="geometry" />
        </mxCell>
        <mxCell id="RDj6K1EUGKKzCEuKwQeV-14" value="" style="edgeStyle=none;orthogonalLoop=1;jettySize=auto;html=1;endArrow=classic;startArrow=classic;endSize=8;startSize=8;rounded=0;entryX=0.145;entryY=0.13;entryDx=0;entryDy=0;entryPerimeter=0;strokeWidth=2;" edge="1" parent="zz1IJL5PvDVAFTh64P6X-1" source="RDj6K1EUGKKzCEuKwQeV-5" target="RDj6K1EUGKKzCEuKwQeV-7">
          <mxGeometry width="100" relative="1" as="geometry">
            <mxPoint x="520" y="140" as="sourcePoint" />
            <mxPoint x="620" y="140" as="targetPoint" />
            <Array as="points" />
          </mxGeometry>
        </mxCell>
        <mxCell id="RDj6K1EUGKKzCEuKwQeV-16" value="" style="edgeStyle=none;orthogonalLoop=1;jettySize=auto;html=1;endArrow=classic;startArrow=classic;endSize=8;startSize=8;rounded=0;exitX=0.855;exitY=0.13;exitDx=0;exitDy=0;exitPerimeter=0;strokeWidth=2;" edge="1" parent="zz1IJL5PvDVAFTh64P6X-1" source="RDj6K1EUGKKzCEuKwQeV-7" target="RDj6K1EUGKKzCEuKwQeV-6">
          <mxGeometry width="100" relative="1" as="geometry">
            <mxPoint x="630" y="180" as="sourcePoint" />
            <mxPoint x="730" y="180" as="targetPoint" />
            <Array as="points" />
          </mxGeometry>
        </mxCell>
        <mxCell id="RDj6K1EUGKKzCEuKwQeV-17" value="" style="outlineConnect=0;dashed=0;verticalLabelPosition=bottom;verticalAlign=top;align=center;html=1;shape=mxgraph.aws3.router;fillColor=#F58534;gradientColor=none;" vertex="1" parent="zz1IJL5PvDVAFTh64P6X-1">
          <mxGeometry x="250" y="40" width="69" height="72" as="geometry" />
        </mxCell>
        <mxCell id="RDj6K1EUGKKzCEuKwQeV-22" value="" style="outlineConnect=0;dashed=0;verticalLabelPosition=bottom;verticalAlign=top;align=center;html=1;shape=mxgraph.aws3.internet_gateway;fillColor=#F58534;gradientColor=none;" vertex="1" parent="zz1IJL5PvDVAFTh64P6X-1">
          <mxGeometry x="-32" y="40" width="69" height="72" as="geometry" />
        </mxCell>
        <mxCell id="RDj6K1EUGKKzCEuKwQeV-23" value="" style="edgeStyle=none;orthogonalLoop=1;jettySize=auto;html=1;endArrow=classic;startArrow=classic;endSize=8;startSize=8;rounded=0;exitX=1;exitY=0.5;exitDx=0;exitDy=0;exitPerimeter=0;entryX=0;entryY=0.5;entryDx=0;entryDy=0;entryPerimeter=0;strokeWidth=2;" edge="1" parent="zz1IJL5PvDVAFTh64P6X-1" source="RDj6K1EUGKKzCEuKwQeV-22" target="RDj6K1EUGKKzCEuKwQeV-17">
          <mxGeometry width="100" relative="1" as="geometry">
            <mxPoint x="100" y="76" as="sourcePoint" />
            <mxPoint x="200" y="76" as="targetPoint" />
            <Array as="points" />
          </mxGeometry>
        </mxCell>
        <mxCell id="RDj6K1EUGKKzCEuKwQeV-26" value="" style="edgeStyle=none;orthogonalLoop=1;jettySize=auto;html=1;endArrow=classic;startArrow=classic;endSize=8;startSize=8;rounded=0;strokeWidth=2;exitX=0.855;exitY=0.145;exitDx=0;exitDy=0;exitPerimeter=0;" edge="1" parent="zz1IJL5PvDVAFTh64P6X-1" source="RDj6K1EUGKKzCEuKwQeV-17" target="RDj6K1EUGKKzCEuKwQeV-6">
          <mxGeometry width="100" relative="1" as="geometry">
            <mxPoint x="490" y="50" as="sourcePoint" />
            <mxPoint x="590" y="50" as="targetPoint" />
            <Array as="points">
              <mxPoint x="510" y="40" />
            </Array>
          </mxGeometry>
        </mxCell>
        <mxCell id="RDj6K1EUGKKzCEuKwQeV-29" value="" style="edgeStyle=none;orthogonalLoop=1;jettySize=auto;html=1;endArrow=classic;startArrow=classic;endSize=8;startSize=8;rounded=0;exitX=0.855;exitY=0.855;exitDx=0;exitDy=0;exitPerimeter=0;strokeWidth=2;" edge="1" parent="zz1IJL5PvDVAFTh64P6X-1" source="RDj6K1EUGKKzCEuKwQeV-17">
          <mxGeometry width="100" relative="1" as="geometry">
            <mxPoint x="360" y="140" as="sourcePoint" />
            <mxPoint x="460" y="140" as="targetPoint" />
            <Array as="points" />
          </mxGeometry>
        </mxCell>
        <mxCell id="zz1IJL5PvDVAFTh64P6X-12" value="&lt;font style=&quot;font-size: 18px;&quot;&gt;&lt;b&gt;virtual private cloud - 10.0.0.0/16&lt;/b&gt;&lt;/font&gt;" style="text;html=1;align=center;verticalAlign=middle;resizable=0;points=[];autosize=1;strokeColor=none;fillColor=none;" parent="1" vertex="1">
          <mxGeometry x="420" y="773" width="300" height="40" as="geometry" />
        </mxCell>
        <mxCell id="RDj6K1EUGKKzCEuKwQeV-1" value="" style="edgeStyle=none;orthogonalLoop=1;jettySize=auto;html=1;endArrow=classic;startArrow=classic;endSize=8;startSize=8;rounded=0;strokeWidth=2;" edge="1" parent="1">
          <mxGeometry width="100" relative="1" as="geometry">
            <mxPoint x="119" y="664" as="sourcePoint" />
            <mxPoint x="189" y="664" as="targetPoint" />
            <Array as="points" />
          </mxGeometry>
        </mxCell>
        <mxCell id="RDj6K1EUGKKzCEuKwQeV-12" value="&lt;b&gt;&lt;font style=&quot;font-size: 14px;&quot;&gt;Acesso da internet&lt;/font&gt;&lt;/b&gt;" style="text;html=1;align=center;verticalAlign=middle;resizable=0;points=[];autosize=1;strokeColor=none;fillColor=none;" vertex="1" parent="1">
          <mxGeometry x="575" y="628" width="150" height="30" as="geometry" />
        </mxCell>
        <mxCell id="RDj6K1EUGKKzCEuKwQeV-40" style="edgeStyle=orthogonalEdgeStyle;rounded=0;orthogonalLoop=1;jettySize=auto;html=1;strokeWidth=2;" edge="1" parent="1">
          <mxGeometry relative="1" as="geometry">
            <mxPoint x="-310.75" y="482" as="targetPoint" />
            <mxPoint x="-310" y="356" as="sourcePoint" />
          </mxGeometry>
        </mxCell>
        <mxCell id="RDj6K1EUGKKzCEuKwQeV-32" value="&lt;b&gt;&lt;font style=&quot;font-size: 14px;&quot;&gt;USER&lt;/font&gt;&lt;/b&gt;&lt;div&gt;&lt;br&gt;&lt;/div&gt;" style="verticalLabelPosition=bottom;html=1;verticalAlign=top;align=center;strokeColor=none;fillColor=#00BEF2;shape=mxgraph.azure.user;" vertex="1" parent="1">
          <mxGeometry x="-359.5" y="230" width="97.5" height="100" as="geometry" />
        </mxCell>
        <mxCell id="RDj6K1EUGKKzCEuKwQeV-33" style="edgeStyle=orthogonalEdgeStyle;rounded=0;orthogonalLoop=1;jettySize=auto;html=1;strokeWidth=2;" edge="1" parent="1" source="RDj6K1EUGKKzCEuKwQeV-32">
          <mxGeometry relative="1" as="geometry">
            <mxPoint x="-40" y="280" as="targetPoint" />
          </mxGeometry>
        </mxCell>
        <mxCell id="RDj6K1EUGKKzCEuKwQeV-35" value="&lt;b style=&quot;font-size: 14px;&quot;&gt;&lt;font style=&quot;font-size: 14px;&quot;&gt;AWS&lt;/font&gt;&lt;/b&gt;&lt;div style=&quot;font-size: 14px;&quot;&gt;&lt;b style=&quot;&quot;&gt;&lt;font style=&quot;font-size: 14px;&quot;&gt;Console de gerenciamento&lt;/font&gt;&lt;/b&gt;&lt;br&gt;&lt;div style=&quot;font-size: 13px;&quot;&gt;&lt;br&gt;&lt;/div&gt;&lt;/div&gt;" style="outlineConnect=0;dashed=0;verticalLabelPosition=bottom;verticalAlign=top;align=center;html=1;shape=mxgraph.aws3.management_console;fillColor=#F58534;gradientColor=none;" vertex="1" parent="1">
          <mxGeometry x="-360.37" y="485" width="99.25" height="105" as="geometry" />
        </mxCell>
        <mxCell id="RDj6K1EUGKKzCEuKwQeV-37" style="edgeStyle=orthogonalEdgeStyle;rounded=0;orthogonalLoop=1;jettySize=auto;html=1;entryX=0;entryY=0.547;entryDx=0;entryDy=0;entryPerimeter=0;strokeWidth=2;" edge="1" parent="1" source="RDj6K1EUGKKzCEuKwQeV-35">
          <mxGeometry relative="1" as="geometry">
            <mxPoint x="-80" y="536.635" as="targetPoint" />
          </mxGeometry>
        </mxCell>
        <mxCell id="RDj6K1EUGKKzCEuKwQeV-38" value="&lt;b style=&quot;font-size: 14px;&quot;&gt;&lt;font style=&quot;font-size: 14px;&quot;&gt;Cria e&amp;nbsp;&lt;/font&gt;&lt;/b&gt;&lt;div style=&quot;font-size: 14px;&quot;&gt;&lt;b style=&quot;&quot;&gt;&lt;font style=&quot;font-size: 14px;&quot;&gt;configura&lt;/font&gt;&lt;/b&gt;&lt;/div&gt;&lt;div&gt;&lt;br&gt;&lt;/div&gt;" style="text;html=1;align=center;verticalAlign=middle;resizable=0;points=[];autosize=1;strokeColor=none;fillColor=none;" vertex="1" parent="1">
          <mxGeometry x="-225" y="488" width="90" height="60" as="geometry" />
        </mxCell>
        <mxCell id="RDj6K1EUGKKzCEuKwQeV-39" value="&lt;b&gt;&lt;font style=&quot;font-size: 18px;&quot;&gt;AWS cloud&lt;/font&gt;&lt;/b&gt;" style="text;html=1;align=center;verticalAlign=middle;resizable=0;points=[];autosize=1;strokeColor=none;fillColor=none;" vertex="1" parent="1">
          <mxGeometry x="470" y="833" width="120" height="40" as="geometry" />
        </mxCell>
        <mxCell id="RDj6K1EUGKKzCEuKwQeV-42" value="" style="shape=image;verticalLabelPosition=bottom;labelBackgroundColor=default;verticalAlign=top;aspect=fixed;imageAspect=0;image=data:image/png,iVBORw0KGgoAAAANSUhEUgAAAUAAAAEECAIAAADWO3qHAAAgAElEQVR4AexdB1xUORMPLL0uHaRKkSpYEAtIVzhAUOxi7w0V7PVUFEWqdNiliYq9d6wUadJBEBsqSBOVJp18vI33fLegp3fosfe9/e1Ps3l5k8kk/8xkEjIAkh9SAqQEWFYCgGU5JxknJUBKAJIAJgcBKQEWlkAvAH748OEa59UbXF3ILykBUgL/ugTWrV1bUlLytTmmFwB7eXqYzN7qQkt2DrpLfkkJkBL4FyWwPiJ1qPXcSxfO/QCADx10X3AgLrYERuSRX1ICpAT+TQkcew7tVrqdP3vqxwA8zy0uqgCGPSK/pARICfybEogpgjZL3S6QAMYno/BMSPzi+T+UiCqA0UUwMu+rXUssEJ4J0c+Ir5f/Ru1EbsMzv1rjNyj8gkdMTPb8+Q0eaFkwuhCTZ0QuDMvopYF/WeAbxFn9EQlg5gERmtEVmt6JvtjIeIx9saHzneZGJgxJ71jhfWHm5kDX0Dsh6R3MoEIFvM7P3BzkGno3NKMrMLl5pc/FmZsC14fdD/txBOLcogQ9pwvjuRDSc7CZ6HvZ/r7WhWfB8Ky/Q5OJSeafGV1f45OWDQ/drFi4N3bm5sCtR9LpOcy1YwVuvF2w98jMzYHbYjN6Fvga5f9GPgngLwOClgV97tYaOy7XNBinPdpKc+Q4HUObYRZThphOWuweF5bRSc/+Uvhr3R+eCQMftihpjQAADLecGpj8iWnEMwo0K2gMAwDoj5sektbhebNCSdsAADDSZg5STV8j3jOfng0NHRZpGlhqj7ZGXz1j+6HmjqMnLHANvR+a3kH7Dp57kv1ajld8te+9D6Ffx1uvL4ZnQv1x09VHmGuOHKc5EpMtg1VMwpojx6nrm1vMWhf4sLnX6SYyH7qE3OETFAEAWM/fElPE3AWR+XBdUDyvgDAAwGbRjp4FemXpP5NJAvjLgKBnQ4/r5dJKmqDHh42NTVFzuEvoXRpD//SEGZ4TngmDUloRIPXHTw982EzLgrTsL8oQK/CwRUFzOADAwHpWcGq7f2Lj9A3+JlNWLN5/HBvEBLXZ65gmDr6IXCiloNaDXyyDwsElrz5k65FHTEopPJOhnHsoUtysxekTc2hZ0O9BnaCI5IjxMwOTmojzAlaM0Ub8RaZEeCYUFpfplUmUqaI7JiCxEVPvmZisiBKIzIcbwh8IUMVxADOVicyHrmH3+IXFegIYlWSaQJl4Y/WfJIC/ABgZYwNUdAAAMgM1V3pfnLsrwnr+1pE2szm5eQAAIlJyHtfKw7NgcGpbUEprSFoH3v2fcxgGMwHAM0LTWyJyuw5eLQt82ISWxEwADkppwUYYwu2foUvPgaEZ7fTcrqgCSM/907DG68UBTJWUs3RytZ6/xWreZuv5W7RGj2dnpwAAhphODPjDCqBnY9ANSml1v1x6OKEhIh9+sSkyulATgtPaceKfc1LbwjK6wjPhwr2xAACtUeO9btfgSpixuOjwvfve82YlPfera42VPhcXu59Y6nF63u9Rcmp6AIABKtoL9x1bevDUYvc4l5A7oRntUQUwPLPL82ZlWEZbZN7nKY8JwMefw5C05kPXK8IzO5DLoFcAh2dinuGQtI6D194cflAXmceYF75vmYA3nyUSJIB7B/Cg4cZHn2K+pZhiGJ7ZMXzcdKQrth3J8LxVOdxyqsxAzRkbA5G6oGXDoWaTZFUHT3P1wfCZ2oY0sMFvTovd4wbqjJRSGKSgMWyS84HgtFZa9p80cEhau++9D0YOi6SVNCYs3YOUHi0bBiZ/mrzWU159qJLWiGEWUxbtOx6c2tZTIeMAVhtqHJ7VdOQJjCmCR4qh7713UgqDAAC8AsIHr77GoJsLt8VmDDayU9AcJjZgoKyantYoq+2xmbRsDMZet6pG2syWVtJwXHOIxtCEEbnQwHqWnJqu0cTFB6++HmE9i19YFADAzScgIa9qOm1VVAGkZcHF7nHKumOklTQk5FRV9AwX7DmCmsA0+iPzYGQ+tjIPTmvUM3FgTARW9FxMwpH52L+Hbr61nOWiOmSspLyaouZwhxX7Dt0op2VjjsAvGnjBlmnr/eTU9GQGaqrojumeC+jZ2OtMGjg8CwY+bLJb8ruipr647ECZgZq6xvbbjmb+gCODdaBOArh3AKsNM8b3yaIL4bT13gjAG+lJ7pdfSjKs1vFzNyJHET0HissOBABoj7YOTm0LTm1HABaVVuAVEBaTVuDmE0CvT9/oH5GL6UDchA5N7/S8VTlQZ+TnNXAWpsS6nVvSihoAAD4hEQk5FfTu+DkbiIYrQggOYBU9w4CkRnoOpmMj8zAicmpDAADisiqeNyujC6BLSDwPnyAAgIOTe4CyNg+/EIZGXv7lnueiH8MDV17JqekCAIynrEAGf7fWklUdDABQ0hqx/9KLkTZzuHj5EYAlFdTMpjsfeQKnrPNCvMmq6ihoDKNwcLKxsc/eTovM/yJVIpJpWfBwQr3uWDsAgKaBJe7hC0nrGGI6EQDAxsYurajOK4DxNtRsEtYWggktJCbNLywmKinPzs4OAOAREHYJuR1b8icAxz6BQSktI8bPQK1T0jaQZExkAlTxvWefoBUQkSVWT5MA/jLUiCY0poFLMCRE5cN9F58ju5qHX9D33nv3yy+lFDHlNn7uJiYAqw4ZG/SwBQcwVmbOxoPXylZ4nRcUkQAASCtpBiQ3Bae24QAOSe/wiq9WHjwKADDKdm5EHvS8WaGoqQ8AkFIctJGe6HP3vfHk5QAAITHpXSfzmBa0OIAVtfS9blf73a/be65ka0y6xax1XDx8DCaxWcY/oWHQcFMAgKS86qL9x/0TGtb4XxcSlQIADNQZ6Z/Y6HG9XG4QZtmaTFnJDGDtEX73P0YVwMFGttgkNcba+867sEzoe/e9pDy2/NYxtA1IqqfntFvMXAcAUNEz9Iqv7jnXhD3CNHZPANOz4eaoFFk1PWkljdF28/0e1E1e6wkAEBaX2RKTduTJFw0sKq0wZwf94PUy+xVu3IzZxHbxjuhCuD7sPr4GPvYcrgm4QeHgBAA4rNwfVQA9b71V1zdHc9Pf26jrzyAnAdw7gLl5BRQ0hskPGiKvPpQqIYv0jKH9wrBHcP+lFwjAVvM203OxpRqugdWGGhMBLK2k6XO3HLPDH8ORNk6YhmFnP3j1TXBa+9cAHJkPV/tdRdWZTF12lHHczedupbP/9bVBtw7drGByyeAA5uDkFpVREpVWEBKVRC4fwMYmN2jIrhN5R4rhRloCmkGMHZdhpm8OZmYjlrrdXW4XnnnerPgM4Kmr0Kz0RQMzABz7BOoZTwAA6Jk4BCQ1RmEq/Q7y/Tqs3L/vwvM9Z4rn7oqgcHAAALZEp/a6B94rgMMzMVR73qrac7b44NU3/gn160PvCYpKAgCmufrGlsANtM9OrLGTliKTOyilSUpRHU0WQSmtG2gJOIBjS6DjGg9s7cAvtDbg5u4zj/eeKzGdthoAIK8+NDi1vecypD/j8y95IwHcO4ARhNC/XNx8UoqDbBZuD3z4KSIP7rvwDAF40ir3mMfY618D8MjfZgeltIZnYQWmb/RHJuKes8UhaR3fAPAKz/MAAHYKZbF7HFq2hTPs6gjGZMHUoziAObm4ZZS15NR0JeSU2djYMBt11PjgVKz26EI4f3c0aov98j1oo4WeA2dvD0eZW6JTcQBbzdscXYg1KjL/DxOaAeAjxVAXAdjY3j+xIfoxXLA3lsLJRRQUnl7td7XXBWevAA7D/PYtMzcHKQ8excHFjRMBAExctf9IMdxAS0BT0m8LthwpxniLyIPI4FfQGB6Y3IwD2JaxjWQ6dSWRCJ6WUhyE1tVMMmTpnySAewewlMKghXuPzN1Jn7M9fJXPpf2XXqJNDnoOA8CMZZXt4l2R+ZgGDk5tE5VWAAAwaeCRNnMQhOg50H7Znu8CcAFcG3gL6er5u6ORyUdjTAFMxjMadjiA5dWHup174nmr4vdThRLyqozV78CD197QsjEAL9p3HI1jhxV7PwM4F85gzCmYwoxKPXTjLXIOW85ywRqVBUMzOmUGYjtqSkwANnHwT2z8DGAODMDDzCdPWec9afVBxzWHJq/1mrjqwN5zT3tdbfYK4KgCaL98L2JPQ998xsYA6/lbuXkxr8HEVe69ApieC2UZK3YFzeGBDwkAXoztA6MVBxcPn/WCbY7OHgzGPB2dPZy2hvrcecdkwrA0esMeYT5L8ijlZwwT18Dq+sbHX34+hoXt4vxxqomejfl7pBkje4TVzNCMliPFcEv0Q2RMMgFYTk3X524FdkzyjwUkOzvFK77mGyZ0VAHccSybQsGWcMaOy2KKMPhti80YZTt32nrfncdzmGCMA1hliFHQw8aIXKz8Uo8zCA+jJywIe9QZVQA30hMFRTCj1GjSkqgCTIMdKYZDzCahYvsvvvC+XaOggW1N65k4BKU2HnkCdxzPRHYsE4C1Ro33T/wQUwQ30pP4hTC/9FRXn2PPMYLhmdiednBqW+ij3k9W9QQwLRs7uKY9xhrbpZOU23O68GwFnL87BDHm6Hwo9gnBhHbETOjoQuh7r1pCFvPt6Y6dEJrRtSH8QU8TmptPcMex1KNPsSEenNYakNgUkt7J6nDtyT8J4N41MNELzSQ1eg7UHo0NOF4BYUdnj3VB8cq6Y9CAYwIwhYPLZtEO90svF+yNRY5odX3z4NTWoK87seg5MCDpE3LJikjKrfa7cuDKKz1jezS+9198weQc+gJg3TH+6CxEFgxJbxthNQud5Vi471hUAfRPbBykjzmxRKUVnLaGHbz6esGeGLQqVtc3909oiMyHBr9hq3RuPsEJy/a4ht4dNNwMNQoBOKYIO03FsO05lxw4efjBx8MP6mWUtQEAsqqDV3pf3BabOcp2rtwgPdNpq3zu1DLxiWTYK4CDU9u1R1uhqmduDnIJvq2iZ4iqNpu2mp7zxYQWkZKbsz3c7VyJ+Yy1yHqfsGxPzGNmJ9b68PvIxTXcctquuLxVfpe1x1graunP3Bz4H1O/pAb+gl5sKcs4iYXsxm8AOCIXzvs9CgBsncnOTuHk5tEcOQ4t0lR0xwQ+bA5ObUNHKeXVhwqJSYlKKyKHMNqzicjDzloidTfCakZIeseftpEYf9iwPuwOUikCVHFJhj2MKToX755OVBzADGdyAxqgEXlwW2y6IMPJLCmvevDqG8znFByPEMvOTpGUV2Vn+GkFRSXXh9/H/iw0FzofvsbBiS1B2djYObl5Bw03FZdTBgAoaAzzvfchqgDO3BIMGKtrXn6hUbZzadlw0b5j6IgLJzevkJg0A94cU9Z69boV/NkL/aBOx8gGAKBhYBmShh0Uj8yH0zcc/ixPCgcbO0XH8LfxczYAADi5eQysnTbSE/mERCgcnANUdHj4BXGfopiM4s7j2UeeQJeQ2+ispc2iHYxFcpflLBc0BQhLDODk5gUAcPHwbY582Ou0wjRBs9ZPUgN/wTAtG3rfrhkxfsaAgVpjJy392mZm2CMYkt65wuuCpoHlABVto0lLDlx5Zb/cTU5Vd+ykJcGp2Amt0XbzpRTUnLaGOvtfG6gzUnqgppK2wZIDp7AdmiwYlNI2ymaOtJKGzaIdoemdvnffG9ovlFIYZLdk9+eDHFlwZ1yOxgjzAcraEvJqyoNHz90ZEfYIOw7FNLzoOXCY+WRZ1cGGDouwc9d/FIjIxTZpFdSHyaoOnrc7mpaNQXTPmaJh5pMHKGtLyqvJqgweMX7G/ovP8FdCH2EY1h5tLaOsNXrC/H0Xnk119ZFT1R1tN88/sYHGOH/228JtCupDB6jo/LZwW1gGdjhkS3Rqtx0rraQhraSpP2762qBbYY86v6bowrNgQFKT5SwXKUV106mrQtI7UXv9kxqnrPNS0jYYoKI9bs5Gr9uVQSkt+uOmD1DR1jNx2HUiT2OEhYrumLWBt2ZuDpJR1pJR1hpsZLPnTBFq17bYR5oGltKK6k5bQqIKMQmHpLUt2HNEQX2YtJKGguZw20U7d8Yxrz6YJMmiP0kA/wkSmEJgnBnq1YmK9/Efx4k7Q9I7InKx7c2IXEyT4BoygkEEHaug53QFPmyhZ3cRl6+fCzD+yAmd+4vMx1baeBXYIaR8zBgOSG5GdIgnhPFiyCVLrBp/hE5BdDuTcbVDy8JaF/ao0z/pU1hmO/aIcCL6j0Z14Y1CFPBGYXwymolV98efZ6GzUCHp7SHp2PlHYhNwTv6U+IMITiHsEeYIZNTSFpqBHZBEqEYiwn5mYaJADcH27bI6glJaMbH/8XcaWLsYBb7Uztjbi8iDmBMxswv10Z/YYJ2zVt9mmwTwF8x8W1I9n37NUOy1ZM/M78n5/iq+hxoq85c0cZ3chzS/n9T3lPx+Dr+/5PfU2w/LkAD++wDuh91JsvT/JgESwCSASQmwsARIALNw5/2/aRuyvT0lQAKYBDApARaWAAlgFu68nvMxmfP/JgESwCSASQmwsARIALNw5/2/aRuyvT0l8DcBPHtPHD0PBqeT339BAqGPsLMNpPBJCQSnw8gCaL3kBy929zjgvtYz7vpLeKGI/P5qCVx6AqNS3vvfenW55FdXTXZ3P5TAzddw+mq3c2d+JLSKu7t7XFzc12KxkPk/WwJXr17dunXrz66FpM8qEnBzczt1igQwq3QXhCSAWaevfgWnJIB/hZT7sA4SwH0ozP8AKRLALNaJJIBZrMN+Mrv/WQB/+vTpzZs3r1+/bmtr+xky/PTpU1lZWXl5eUtLy8+g/zWaJIC/Jpn/z/xfAeDbt28fOHDAm/Hx8fEJCws7derUs2fP2tvb+1boXV1dOMFz586haxkeP36MZ/7DBJF+XFwchUKhUqn379//h2R/6HUWBXBnZ+eJEyc8PDzQMGD618PD4+zZs794KkRi72J8fqgL+lXhXwHgFStWICwR/9XQ0Fi8eHF1dXVfiePixYvm5ubp6emIYEJCwujRo4cPH/7y5cs+qeLUqVOTJ09OSEhA1G7fvm1kZGRlZZWTk9Mn9L+TCIsCuK2tzdDw82VXxGGAp8eNG/f+/fvvFEJfFcvPz58wYUJ4eHhfEfz1dH4pgK2srDZs2ODg4CAnJ4euL9bS0srLy+vZ7G/YvZ2dnb2q7rFjx3YH9bx8+TKi1tnZ2cr4ENVmz4p6zem1djs7LCbI0aNH/5J+J+PTK2U8829P/CwK4I6ODh8fn2XLljk7Oy9fvlxKCosLISgouGbNmtWrVy9btiwoKOjTp09IPr3KHxfd30t0dHR0dnYyvbtlyxYAwNq1a5nyWejnLwXwyZMnkWhqa2u3bt3KyYndn6qrq1taWoryW1pa6HT6+vXr58yZs23btvPnz7e2tuLSrKysjIiIcHV1nTdv3p49ey5cuPDhwwcIYUpKirOzMz8/FrxnypQpfn5+tbW1JSUlu3bt2rZtG1Lyqamp27Zt8/LyqqqqunHjxpYtW1xcXK5cudLY2IjTr6urO3bs2I4dOxYsWHDo0KHU1FT0KDs7e9WqVWjMTZgwwc3Nrb6+vrCwcPfu3QcOHMCZhxDeuXNnz549yxgfNzc3onWdlpbm6urq5eX17t27W7dubdq0ycXF5fz58/ioxdn4doJFAUxsVHNzs6kpdkumkpISMb+9vf3SpUtubm7z58/fs2fPzZs38d4vLy/fvHnz77//XlRUdPny5d27dz98+BBC+OnTJzqdvm7dujVr1oSFhVVWVu7du3fLli0pKSmIcldX1+3bt7dv375gwQJnZ2c/P7/6+noIYXl5+datW9XUsOgwBgYGe/fuLSoqIjLDKul/B8AQwo6OjmXLliELKiwsDEJYU1Mzb9483KYCAPDz87u6uiJR1tfXOzo6osBWeJktW7ZACP39sbgH+EdBQeHp06fd3Yxy0BrYz88PAKCoqLhr1y4RESxgNHbvISenu7s73lWzZ8+mULConOgjJSUVEREBIaTRaH/kYf9zc3NXVFSgNbCwsPDdu3cRBXd3d5wyKi8qKurj44OeBgUFAQCUlZU3bNggKIjFGcNufqVQusclzsD3JP4bADYxMekJ4M2bN3NxfYn2ICgouG3bNiSTzMxMLKAZD8+aNWskJLBAU4cOHYIQzp49G5lySJ6Ojo7c3Njdmr6+vuhFd3d3MTEsejD+cXR0fPv2bXZ2Np7DuIuT7fz5898j//5W5l8DMITw8uXLaCjv3r0bQhgWFobG9P79+5ubmw8fPszJycnHx4c0IXJKcXFxpaWlNTc3nz9/XkFBQUdHp6CgoLW19ejRo0gDo2kYQnjx4kXUtQjAwcHB6KeYmNi6deu8vb1lZbGgR7Kysm/evIEQnj17VkhIiJOT09jYOCsry8oKu6zY3Ny8ra2tvb396NGjQkJC7Ozs3t7eZWVlEMJTp05xcnKKioqiVfHVq1eFhBhh9YYOvXr16uXLl3V0sFDDVCr1zp07EEIEYOxyZlHRNWvWeHp6iotjcavV1dV/aO7/rwI4PT1dUVGRg4NDS0srISFh1apVqHfevXsHIUQARnOuioqKmZlZYmLio0ePhIWF0UQQGxsbFhYmI/M5kri/vz+EsKioSFQUu31+4sSJVVVV8fHxqMCBAwcghA8ePNDS0gIAzJ8/v6Kioqmpqb+B83v4+TcBXFxcLC8vDwBYunTpp0+fZs+ejUWO1dJqbGzs6uqqrKxEhtby5cshhO7u7kj7+fr6Isvq5cuXb968Qa7L9PR01Jf4GvjChQtMAEbae+fOnUguOKLQBJGWlnbp0qXr16+jEYOeCggI3LhxA0KYmJgoJibGwcGBrwJOnjyJAJyYmAghXLNmDQBATEzswYMHiP7ly5cFBLAQIb///juEMDg4GE35Li4uqMChQ4dQDk7zezrsvwrg4uLi8+fP37x5E82Pd+/e5eHB4qojKOIA1tXVraioQILasAG7PhoAcPz4cZSDdAD+1ubNm5Edh/oIQjhnzhwAgIWFRWNjY3V19ciRWGDXdevWfY/k+2eZfxPAmZmZ0tLYheB79uxpaGhA0uTh4VFXV1dVVVVWVubjw2JkOjg4QAizs7ORfcvFxaWhoWFpaRkXF4fWwBDCtLS07wTwhQsXUE/k5eUhSN+7dw/lPHz4cPny5SNGjNDR0Rk4cCCqLiQkhAjgEydOoMI4gJOSkjo6OmxtseibmpqaaIkFISwrK1NSUgIALFq0CEIYEoJFDOHk5IyNjUUUEhMTkX6IiYlBOd/z738VwBDC4uLiTZs2GRkZ6ejoqKmpIQAvXbqUqIE3btyIS2nhwoVY4FUhoeTkZJRZVFTEwYiQiGCPVAInJ6eCgoIa44MsvgEDBrx9+7ampsbAwIAEMC7PrybwbSQmVUOj0RCEwsLCWlpahgzBYlLz8/OP/eNjZmZmZGS0detW5Em+du2ara2thoYG8n5hcQMUFJAP6fsBfO3aNcTokydPUO3R0dEQQg8PLCxlt59ZVVV1/Pjx2tpY3JDuOL1/CeDk5OTm5uZRo7AYv0OGDMGl8OHDB1VVLM7YlClTcADz8/Pja628vDw0f5EARksYtAgaMGCAhYWFgYEBmkCZALxv3z5cwgjAMjIymZmZKLOwsJAI4JkzZ6KV8/Dhw01MTMaOHWtqamphYWFsbFxeXk4CGJfkXyR6BfCrV690dbGo8EJCQrdv3+7o6Bg/fjwWMFpHh2mXiGkfqLS09MyZM7i7KzAwEEKYmpqKlqB/aULjAC4uLsanj4aGBrQLpa6unpubi1vsOIATEhJERUU5OTnxv/wgauBu7TFjBhYVXkVFBVmAEMKMjAxJSSyk2KZNm3ATmo+P7+zZs0heubm5yLNNArijo2PRokXIQYB68MqVK2gCZQLw3r178dGGANztRsb7FF83IQ28ZMkS5FVBjkZ8IKHE27dvSQ2MC/NbCRzAgYGBNTU1z549i46ORv4DAMCSJUvQy2jFIiYmdvXqVWQ1rVu3bvv27RkZGRDCuLg4BwcH3P58/vw50sNoTYtr4P379yNqeF/iTiwEV7yzcQDT6fSXL18ifvT19dHSGjmxAABBQUEQwqSkJOT8xFewOICRE8vTE4srz8XF5e3t3dHR0dLSsnPnTjQE6XQ67sQiAQwhbG5uZvJC19XVWVtjIeMGDBiQnJxcX1+/fPnyvwTw0aNH0RhwdHR88+ZNUVGRsbExegsBOC4uDrm1Dx482NnZ+e7duwMHDqxevfrSpUsQwsrKSrRqc3BwIO4mfmso979nv3QNjIRL/Nfe3h45gdE6FnmGeXl5HRwckEZVVFQsKSnBNRgHB8eyZcv27NmD5k5ZWdlnz55BCKurq5E2ExERWbp0aV5e3rVr13p1YvUEcGhoKIRwypQpiDE9PT0qlTpkyBAE6VGjRsXHx7969Wrw4MHdeJaQkHBycnr27NmZM2eIXuhXr16NGDECUZgwYYKRkRFKW1tbowNGyCtGArhXAEMIt2/fjiSmqqoqJyenqKiIViUaGhonT55MT09HT4kauLGxET/dJSAgwMvLKy8vj6ZpBODOzk5k1gEAbGxs9PX1kUV95MgRCGFnZyc6nMPNzW1vb487R/ofSL/F0b8DYCUlJUdHx/DwcKaZLzk5Gc3NSND29vb4WYiWlhYPDw99fX0ESzY2NjMzMzSVovZ5eXmh9Q+VSr13796NGze+E8DBwcFoUwE5vQEAtra2z549S01NRauy2bNno0Usos/Ly5uRkXH27FkigCGEubm5kyZ9DrqL/FULFy5Esw+pgYljsKcGhhDm5eXhc+iwYcMePnxYVlamooLFATYxMUlMTOwJYAhhYWHhnDlzREVFxcTEVqxYceXKFbQPfPjwYVTj69evnZyc0HKak5PT0NCQRqPhtnR8fDxa5uAby0Q+WSL9KwBcV1dXUVFRSfh8+PABP2TDJKZPnz69evUqPz+/oqKCqUxnZ2djY2NpaWlycnJpaWlzczPx3Y6Ojurq6oqKipqamvb29paWlsrKyoqKCrSibn03giIAACAASURBVGpqQj/xE/Pt7e0oBz8L9enTp6dPn758+RJR7urqqqmpqaioqKurgxB2dXXh9JGRXFlZWV1dTWSytbW1rKysoKDg8ePH1dXVxMV8U1NTRUVFVVUVkYHq6uq3b98yNYTYqJ7p/4AXuqur6/3796iniA1sbW0tLS19+vRpQ0MDykfF3r9/39bWhoYQccbv6OhoaGh4/vz5kydP0C7uvXv3kAZGe++ISGtra0VFRU5OzosXL/C+xuutra1FA/OHegF//V9P/AoA/+uN/C8x8B8AcF91R2VlpY2NzcCBA01NTePj45OTk9EqRlZWlni+ta+q6590SAD3z375KlckgHHRtLe3r1+/HpnWvLy86MgkPz+/t7c3XuY/nyABzGJdTAKYqcPS0tImT548hvGZM2dOH/75N1NF/fMnCeD+2S9f5YoE8FdF83/5gAQwi3U7CWAW67CfzC4J4J8s4L4mTwK4ryXK2vRIALNY/5EAZrEO+8nskgD+yQLua/IkgPtaoqxNjwQwi/UfCWAW67CfzC4J4J8s4L4mTwK4ryXK2vRIALNY/5EAZrEO+8nskgD+yQLua/IkgPtaoqxNjwQwi/UfCWAW67CfzC4J4J8s4L4mTwK4ryXK2vRIALNY/5EAZrEO+8ns/msAfvfuXVZWFn6HI97Mrq6uurq64uLiBw8evHnz5i+jbNTX1z958uTBgwevX7/G/9QWp0ZMIMpPnjy5f/9+aWnpX94D3NjY+OLFi+Tk5GfPnvUsXFpaamVlhe52QLU0NTXl5ubiF4wQq4YQvnv3Ljs7+/Xr1x8+fOgZ44Op8Dd+/pcA3NTUlJWVhe7x/UaT+/bRhQsXlJSU8BhafUv811P7FwDc1dUVHx+PLqzBL7jBW37x4sWBAweiy+4AALNmzaqqqsKfMiVu3LihrKzMwcEhLi5OoVBmzZr1jWhp165dQ9dEUqlUAICxsfGTJ0+YCOI/CwoKxowZ032pnZSUFIVCMTIyKigowJ+iGzYEBATwcfD48WN0syy6xZpYsqurKzY2Vltbm4+Pj0KhSEtLEy8SIZb8nvR/CcCpqakAAHQt4fe0vU/KREZGdvc+Hk+jT2j+i0R+NYAbGhq2bNkiIiKiqalJvE8QiSA9PZ1KpRoZGV24cOHBgweHDh0SFBRctGgR8WoLXFg5OTkSEhKqqqqnT59OT09HV+r89ttvvSrt8vLyAQMG6OrqnjhxIikpKTQ0VERExM7OrucVDRDC0tJSTU1NcXHxo0ePpqenh4aGSktL6+rq4jdFdAeCWbVqFZVKRddx0Gg0BcYHANATwOjutUmTJt27d+/y5cvm5ubS0tL4VTt4c74zQQL4OwX1tWJRUVHd1/Tgl4F/rRir5P9qAOfl5QkLC9Pp9Bs3bvQE8Lx580RERPBrfrstz9WrV0tKSuJxxohi9fb2BgDgkRC6rylDF0E+ffqUWAyl9+/fz8vLi9/JDCHct28fDw8Pfg0t8ZWIiIjuS56Jt5wdPnwYABAfH4+K1dTUjBkzxsnJCf3U1tZetGhRfn4+JycnugYVp4au/x86dCh+Y0tCQoKvry9++yxe8jsT/1cA7ujoyM/Pv3DhQmho6P3791+/fs0kpaqqqoKCggcPHhQXFxMfdXZ2vnz58s6dO7GxsQUFBXgAAAghCWD3uLg4orB+KF1TU5OVlQUhvHfvHhOA379/r6+vP2jQICLBhIQEPFIGMR/Fmx05ciRxBXXlyhVeXl4vLy9iSZR2cHCQkZEh6tunT592X5138ODBnoWnTZsmIyPz/Plz/FFWVtaAAQPwOJRpaWlsbGynT59GBZAhXVVVxcHBwQTg06dPd19AHxkZiZP6h4n/HwB3dnbu3r0bAMDBwYHCCMrKyl68eBEXYGJiooqKioCAgKioqIiISEBAAH5jloeHBy8vr5ycnLa2NoVCGTNmDO6bIAH8jwCMS78ngN+8eaOlpTVy5Ei8DITw9evXvcKssbGRi4tr2rRpuGaDEJaUlKiqquIww+nU19cbGRkNHDgQz4EQ1tbWAgA2bNhAzES3jZqZmVlZWREdbG/evNHW1sZ5Q4OA6fKHysrKngBG0XoSEhJoNJqjo6OlpaWbmxtRITDV/pc//38AHBkZSaFQxo0bd+3atdLSUhqNJiYmpq2tjdwc9+/fR6utGzduFBYW7tixo9tvgmJB5uXliYiIjBs37unTp+Xl5QEBASIiIngAJBLAPwvAL1++1NTUXLFiBXEQV1VVoeBJxEwIYUNDAwCgO4wwccX76tWrQYMGmZqaMhV++/btkCFDlJWVifkfPnzoSQFC2NLSwsXF5ejoSFTXZWVlOjo6mpqa6HrKKVOmmJmZffz4kUiwVwCjiC2Ojo5aWlrjxo1TU1Pj4ODQ09P729Ho/08A3NXVNWnSJB4enuzsbFzIe/fuxWNl7N+/HwBQWFiInlZXV+/cuTMgIAC5MC5duvT27Vv0qLW1ddSoUaqqqmhGJgH8swBcUlKipqbGpD8RgPE4sXhfIgAvXLiwo6MDz0QANjExwXNQAgFYRUWFmI8APHv2bOK9sAjAvLy8kyZNIm4dEQFcX1/Pz8/fk6VeAYwi6A0ZMgTdTdvW1rZy5cpepyQib99I/58AuLa21sjISEpKiui/vHr1KgAA3e1ua2srIyPztR2K5ubm06dPHzhwYNeuXZs2bZKUlJSVlUVhXEkA/ywAl5WVaWtrjxkzhjh8i4uLAQAeHh7ETFwDz5gxg7j3W1paqqGhsXLlSqbCdXV1hoaGTCY0AjAeKgV/paOjY+TIkQ4ODkwAHjx4MDKhU1NTeXh48CAv+Iu9AtjX17c7YNrRo0fxYqmpqcLCwhYWFnjODyX+TwBcXl4+bNgwWVlZonCKiooAAFu3bm1oaBATEzMxMSEuc/CSubm5Y8eO5eLiUlFRMTU1NTIy4uXlVVBQQI4uEsA/C8B1dXUjRoxAZireGehKfjzOPZ7f1tY2cuRIU1NToh176dIlbm5uNzc3vBiesLOzk5WVJU7nJSUl3fET8FhKeMmurq6JEyeqqKgQfZ4ZGRkyMjJoHbVhwwZ1dXXcKYK/2CuA0XAher/LysoUFBTGjh2Lv/hDif8TANfW1hoaGkpJSRHto0uXLnUHK0P9a2JiIiUlVVlZ2VN6ixcvBgAcO3YMRWB4//79sGHDpKWlSQBjsnJ370sAo/DZeB/MmjVLVFQ0Ly8Pz3F1dRUSEsIDrOD5EELkoiSer0BrpJycHGIxlN65c6eQkBBx98/Dw4OTk5MILfyt0NBQpr1+Go0GAECFDQwMjIyM8MJ4orq6GoVuwnNQ2EQREREUYRTlnz17lp2dnZhDLP+X6f8egFFoG6aGozUwPz8/ccMc9S8qj9YmKDJWd4D17ugN27Zt27lz58ePH8ePH0+lUnGCDx48oFKpcnJyiBSpgf8RgBsbG8vKympra8+cOdMdjzM2Nra6urq8vBzZq7dv3+bi4po0adKrV68aGhrOnDmDAp0hT1VJScn69evxjZ+kpCROTk5LS8vy8vJuIzk+Pp5KpRobGyOjurm5eeXKldHR0UjrPnnyRFhY2Nzc/AkjDMeNGzdERERGjRqFnEkfP348cOAAHjgrLy+PSqUOHjz4+fPndXV1KSkp0tLSqqqqjY2NxcXFAwcOJEapRVE/3r59m5OTQ6FQnJycqqqqysvLcTfV7NmzKRRKYGBgdXV1Tk6Oubk5AODKlSv4CPuhxH8PwPv376+pqSknfJDo0KRpYWFRUFDw8ePH2NhYKpWqoaGBttBv3rzJzc1taGj46NGjurq6wMBAAADaQZw3bx6FQnn48GFDQ0N8fLyZmZmEhISYmBg6AEcC+B8BGIXhRLfpE/9FcbQhhHQ6HcUlRFGnzM3NcUfFrVu3eHh4hg4dio/4Y8eOSUlJcXBwiIqKsrGx6erq4odA6urqAADTp0/HF8lHjx6VkJBgY2NTUlICAGhpaaWkpCBSb9680dHRIW5Bnzp1SkZGhkKhIMra2tqocEhICBsbG9E1mpqais5mEpvT7SCdOnUq8mO/e/fOxsame3gJCAh0B9Hi4+NbvXo13oQfTfyXAPzw4UMmoaGf9vb2yNu/Zs0aHh4eNjY2FHpSXV39+PHjSGJdXV3dcy47OzsX40OlUhcuXIiGSnx8vLa2Ni8vr6SkJC8v7/bt23NzcwUFBQUEBJKTk48cOQIAIAZP+tEu6Fflf/VJrMePH0dHRx/58yc6Ohq3lNra2hITE2k0mo+Pz6lTp4hnmysrK48fP86ku7KyskJDQz08PI4cOUKMiNPW1hYTE5OYmIj/5UBHR0dmZmZUVJSXl1dcXBzxIPSnT58uX75MPHqFog2GhYV5eHjExMS8ePECddvDhw8PHTpE3Hx+9+7diRMnYmJiiG2KiopKSEjAPeS1tbUnT570YXyuX79O3KD60dHwXwJwTU1Nr4MBP13XvQPUbSsdPnzYy8uLTqczbbxDCG/fvh0YGBgQEJCcnIzP1BDCp0+f0un0gICA+/fvI0fXtWvXaDTa69evX7x4QafTKyoqflTy/bP8rwZw/5QCC3H1XwIwC4m937JKArjfdk3vjJEA7l0u/6+5JIBZrOdJALNYh/1kdkkA/2QB9zV5EsB9LVHWpkcCmMX6jwQwi3XYT2aXBPBPFnBfkycB3NcSZW16JIBZrP9IALNYh/1kdkkA/2QB9zV5EsB9LVHWpkcCmMX6jwQwi3XYT2aXBPBPFnBfkycB3NcSZW16JIBZrP9IALNYh/1kdkkA/2QB9zV5EsB9LVHWpkcCmMX6jwQwi3XYT2aXBPBPFnBfkycB3NcSZW16JIBZrP9IALNYh/1kdvspgNvb29+9e4fuNPpLCbS2ttbW1uJ/9/vt8h0dHd9PuaOj4+PHj/if9RIpf/z40dPTk3jXT2dn58ePH4nX3BLL91X6ewDc2tr66dOn75ReXzH2s+mUl5cTL/H/2dX9AvqNjY2+vr4hISHEq9qI9e7bt49Go337r8f7HYBfv349ffp0VcZHT08vKCiI2CSm9KtXr+bOnTto0CB1dXVtbe3Q0NBewYbeKi8vd3JyUmN8Bg0atGXLFuKfgDNRbmxs3Lx586BBgzQ1NdXV1bdv3068PQ9CeObMGRERERQoABXW1NTU0NDovn/Y1dUVDxHARPaf//xLADc2Ni5fvnzYsGE1NTXfU927d+96XtD3PS/+8zLv378n3hzYK8G8vLwtW7YMHjxYSUlJXl5+zJgxBw8eJF7G0OtbxMyPHz++evWqH05nNTU1Ojo6RkZGXxuHYmJiY8eO/fa01b8AXFFRoaenJyUltXjx4l27dpmZmfHw8Bw6dIjYH3i6vLzcwMCAnZ193rx53t7eFhYW3WE4iLdV4SUhhE1NTaNGjaJSqXPnznVzc7O3t+fk5MRv6yeWhBDW19dPnz4dADBlyhQfHx87OzsUJ5E4U7q4uHBzc9fX13d0dMydO1dAQGDixIleXl5Tp07l4eGZNWsW8TpFJvr/5OdfArj7Ei8rKytubu7vvHRiypQp06ZN+ycs/e13d+zYMWnSpG+8Hh8fLykpqaCgMGHChB07djg5OY0ePZpKpUpJST169OgbLxIfeXp6GhgY/KTuIFb0o+nOzs7a2tr3799/bXJBV+fil6v1Sr9/AXjr1q3c3NxnzpxBvLa2tlpbWw8aNKjXeGUxMTEAgNDQUFS4paVlxowZ7Ozs+B1axAbHxsZycXF5enrimU5OTl8Lm3bhwgUAgLu7Oyrc2dm5YsUKAEBubi7KaWpqsrOzMzMzgxDevXuXn59/69atOOXdu3fz8/MzXf2DP/2Hib8EcH19vbW1NTc3N7pyFa0CkGHf2NhYUlKCrzU6Ojo+fPggKSlpa2v77t074vT06dOn3Nzc8vJyvDCEkLigaG5ubm1t7ejoqK+vR8Sbm5tfvHjRqwX04cOH/Px8Yjy3jo6OpqamIUOGjB8/vqamhnhFES6f7kuIhISERo8ejYdfQDycOHGCl5d38ODB+D1H6JWOjo5nz54x6atu9btgwQI9Pb23b98Sa2lubi4oKCBq5vb29u6rLYkroLa2NqYFVEtLy8ePH3GZdHZ2vnjxgjjekIiIN4oj3pqbmz98+MAE1K6urqamJqKF3NXVVVZW9vz5c8QGiwG4paXFyMhIVVWVOAgQliIiIvB+xXtr0qRJampqeAQNCOGJEyfY2NiIQbfxt6ZOnSohIUGUdUZGBgDA19cXL4Mnli9fLiAggC7yR5n3798XFhbes2cP+pmfny8iIoLuN12yZAkfHx/xdtvS0lIAwM6dO3GCfZj4UQBnZmaKiIhERUVt3rxZTk5OXFxcR0fn3LlzEMKioiJTU1MAgKCgoLa2Noq9WFVVNXfuXGlpaQUFBXl5eRUVleTkZMR/VlYWlUql0Wjz5s3j5+ePiYnJy8sbOnRobGzs9u3bFRQUJCQkNDQ0wsPD8fa+f/9+wYIF4uLiCgoKsrKyurq6t27dghA+efIEWUwCAgKampo9jawPHz6YmJjw8fER7w/EyaakpGRlZeHrlNbW1vnz58vLy6upqUlLS5uYmNy+fRsVtrCw4OXl7b6IX0VFBd1n2q2Kf//9dykpKTk5OUVFxW7LHI2ukpISLS2tzZs347W4u7tTqdSoqCiU0x0g3sXFRV1dvaWlpaura+3atahGGRkZExOTq1evosBapqam48ePJ460iooKc3NzKysr4hSJonNZWlo6OjoiE7q6uvq3334TEhKSk5OTkZEJDQ2VlJQ0NTVlGQ38+vVrTU1NPT09XILodjIAwIEDB4iZyCQWFhaeMWMG0TTKzc1VUFBwdXVlKtzS0mJubs4UmeHdu3cAgJ4RUjo7O8eNG2dhYUFc9L569QoFN0KUz549CwBAF1A7OjpKSkoSJ9fGxkYAgJOTE5E3Jpb+9s8fBTC6+VFKSsrY2NjPz8/Ly0tZWZmfn7+4uLi9vf3WrVt8fHzGxsZJSUkfPnxobW21tLQEAMydO/fy5csBAQFKSkpiYmIIRSget6qqqqam5rRp05KSktLS0qSkpHR1dYcMGXLgwIHDhw9raGhwc3Mj3djW1ubk5AQAWLhw4dmzZ8PCwrS0tPj4+DIzMzs6OuLj4wUFBceMGZOQkPDq1SsmgaAoKuh6SqZHPX/u3r2bl5fX2dn5/v37Xl5eioqKsrKyCBUPHz4cO3ashobGnTt30J2HKAatmZnZyZMnT5w4gcK4X7hwoa2tzc7OTkZGBsGsrq5u9OjRbGxsdnZ2qMZXr15paGhMnToVQhgQEMDDw7No0aI7d+4EBQVpamoKCAjU1tbi15WfPHkS5/P27dsAgJ7enOrqai0trdGjRyNW586dCwAwMjKKjY11dnZWVFQEAFhYWLAMgNHdrnPmzMFbDiFEsZF6AhjFRmIKrfL69WsNDY2ey6rKysphw4b1Gtxs4cKFTPNia2urlJTUpEmTiLYNMTZS99zp7Oysra2NZtkJEyZIS0sTeW5ubpaUlJwyZQrRZiMW+CfpvwdgUVFR3OAkBouor6+nUqnTp09HLMXFxVEolGXLluGWZGpqKjc3N3IWIABzc3Pj4ZpTU1PFxcVFRUXxy/SDg4O7Vbq3tzeEMCUlBQCwZMkS3KTqvtOTj49v1apVEMLGxkZxcXFHR8depYGuDcdv6u61DJ7p7e3t5uaGT5d79+6lUChIJba1tc2aNWvMmDHoaVVVlaCgoIWFBR4gEo0ZY2NjCOGmTZsAAC9fvoQQPn/+nEqlzp49e8SIEUjVo3ia6HJ/Go22efNm3FRGMShRAB1kf61YsQK3tF1cXCQkJHpeqVlTU9Nt+BgaGnZ0dJSWlsrLyw8dOhTF0IIQoiDVZmZmLAPg4uJiFRUVJv2JALxx40a8t1ACAXjJkiW4mCCEr169UlNTGzFiBFPhbwQ36+ltamlpoVAo3whu1tLSIisru2bNGgjhhw8fxo4dO2DAAGKNbW1t+vr6kydP7j8AXrp0KS4opBBQtJoPHz5QqVSkVSCEe/bsAQAEBwcXFhZmZ2fn5ORkZmYKCgra2Nh0dXWlp6cDAEaPHo2TSk1NFRUVRaMfSQCZ2b/99hu64hvFtSopKcnOzs7Ly0tISBg6dKigoGBXV1d9fb24uPjEiROJosPTCMC4gwNC2N7evn79emtr6wkTJjg4ONjb2xNjBdfX1z99+jQ9PT0nJ2fjxo0UCuXw4cMQwtbW1hkzZuBaDq2bnJ2di4uLs7Ozc3Nzs7Ky7O3tAQDNzc23bt0SFxc/ceIEhPDkyZPDhw+/d++ehoYGuub28OHDHBwc+IK8sbHx+fPnqEY3NzcODg60aGpvb589e7awsDDy7dfX1/Px8S1cuBBvGp7AAQwhvHLlCgcHB1H3vHz5kp+fn5VMaKSBJ0yYgLcQQvjy5cte4wN/TQNramouWLCASAFC+O7dOwMDg141sLOzM1Ph9vZ2LS0tJg1cXl4+ePBgXV1dtHRkY2NDFlFXV5eDgwOTBm5qauLm5p46dWr/ATCKu4la+g0Au7q69nrTuomJSUNDw6NHj7qf7t69G5dYamqqmJjY8uXL8ZwnT55ISkpaWVl1L3M2btzYKzVRUdG/BPD9+/e5uLiIs3n30YDVq1cbGxuPGzdu2LBhxFFx69YtKysrISEhUVFROTk5KpXKzs4eGBjYE8Dnzp3rlSUODo7S0tLGxkZVVdW5c+dCCCdMmICsA0VFRRSNycLCws7ODmndpKQkBwcHERERFLRFVFSUKBk0+yCFfPz4cX5+fmJ0O1xWRAAfP36cg4MD95uiRSKVSjUxMWEZDVxVVaWnp6elpYW3EEKIpsyewc2am5uVlZXt7e1xMwZCmJSUJC4u3lNdd3Z2WllZKSoqEimXl5fjsSqJ+aiwgYEB8U55ZB2grg0ICFBUVMQ90pMnTxYXFydiFa2BFy9ejGsqIv1/mP57JjQe+AJdho7HwmbSwJs3b0Y68/79+3cIH7QGTktLYwoHhwC8dOlSvFHFxcUSEhIIwO7u7gCAHTt2dC9EcWJ3795NSEiAEHbHQ/mGBi4tLdXR0TEwMMApI6u7rq6uqakpKSkJj1lZUFCgpKQkKSl59uzZoqKisrIy1AomACMTGvlEFy5cmJiYSGTp3r17aCBZW1sbGRk1NzerqKjs2LGj25aeM2fO3Llzm5qaODg4UE5paamenh4vL+/x48cLCwvfvHmDokDjPs6ysrKhQ4ciwwQFyiMOD7xFRACfOnWKk5OTuGSoq6sTFhZmJQBDCG1sbGRlZYkePH9/fzY2NqaYCUgEq1atolKpaMWCcvz8/AAAyJuKiwklFi9eLCIiQlyHxMXFAQDodDpTSdySzMrKwh+dPn0aAID8q4aGhsOHD8e9Vjt37uTj4yOGTUtISAAAELescDr/PPH3AEwMIMakgYWFhfE1MILc77//TuQT9xGgNTBxp/3bAD5x4gQAgKj8iWQ/fvwoJib2NRO6e0G0YMECAEBMTAzxLZRG0zryKqMQSn5+fngxZ2dnfIZqbW2dPn36yJEjkaOosLAQALBo0SJ8WY6/hRKxsbHdp3GOHj2qqamZmJiItjaGDx9+8uRJKSkpZLRfvHiRaZdh3759TA5RFxcXMTGxa9euDR48GMGeqSIIIRHAN2/e5OLiQhMfKpmSksLJyclKJjSEkEajsbOz79q1C7Xh6dOnioqKBgYGaHOvqqrq7NmzaB8CQnj+/HkULRYVLi8v19fXl5OTa2hogBC2tbWdOHEiJSUFqcGEhAReXt7Vq1ejnisvLx86dOigQYOQa+fTp083bty4du0aIoUQOG/ePITSjx8/WlhYcHFxvXnzpqqqSkNDA7lhUOHHjx9TqdRp06aheuvr68eNGyclJZWRkYEK9O2/fQvg+vp6MTExU1NT5NRJSUkRFRXV0tLCI93cu3fPxsbm9OnTKNIi01GZbwP46dOn4uLi3e6A/Px8JITuNae9vf3Zs2dRIHVpaenRo0d/7cRYfn6+sLDwgAEDwsPDcYdiZ2fnnTt3UIA4tEI+d+4chULBJ51Lly5pamoCAJYtW4ZWznPnzqVSqaiWxsZGXV3dAQMGIBcXhPDt27dz5szx8/NDfV1aWiokJKSlpaWsrIx0MmLD0NDQwMAAbUw8ePCAm5sbHwN3794dPnx4964EcTJ6/PixnJycmpqakJAQLkymkYADuL29vaamRk1NTU5OLikpCXGFHPjm5uYsY0Ij1C1ZsoSDg0NdXd3W1lZERERUVBRZXPiRCTy4WUtLC4p2r6enZ2trKycnx8nJicfdRsHNcB9VV1eXs7MzJyenmpratGnTJCUlubi4wsLCkEzLy8t1dXXx4GbIXwIA0NbWtrW1VVJS4uDgQIvekydP8vHxMSn5jRs3srOzKykp2dnZycvLc3Nz+/v7M/VWX/38SwCj+Jr4SSy0jUTcw0AaGDcQXF1dOTk5FRUVURT17du3UygUISGhefPmTZ06Fe3ToiGINDBuKEIIk5OTUVQxvHWFhYXi4uK4JgkKCqJQKMjRPWPGDGlpaQ0NDXxrF0W6U1VVxSNO4nRQ4tKlS6hb5eXl9fT0tLW1lZWVqVRq92YpnU5HM2Ztba2xsTGFQpk8ebKBgYG8vHxISIihoaGwsDDyKsXExHByciopKS1fvry9vf3GjRtUKpVCoVhaWi5fvlxJSQk/EoumFTQ7WFtbIx5qa2vHjh2LjuKhnMbGxokTJwIA7O3tkQvT09NzwoQJPDw8rq6uuBvZysoKAODo6Ii79JlaV1VVpa6uPnLkSGRgb926FUXAs7GxkZaWNjAwoFAopqamTEdTmIj0r5NYEMKGhgZ3d3dbW1tLS8vZs2enpaXhHBcUFMyaNWv9+vV4Tnt7e3h4uJWVlZmZ2eTJk3HljHwAEydO9PX1xS3A5ubmkJCQiRMnmpubz5o1Cx1mQKTev3/v4uKCz6noxE9kL7aBXgAAIABJREFUZKS1tbWZmdnEiRNx5Xz8+HHiJgR6vbW1lUajOTo6mpubz5gx49SpUziHfZ74SwB/+vRp//79s2bNQuriyZMntra2N2/exDnJz8+3sbG5fPkyyqmoqJg1a5atrS1+YuHs2bPW1taWlpZ2dnb79u3DQ8aVlJTY2Ngg/YneLSkpWbhwIT4PQgjLy8sXLVpEDJt+5coVBwcHMzMzW1vbPXv2EI8x19bWOjk52dnZ9bqQQVVUVVX5+/vb29tbMD4zZswIDAxkOkH9/PlzZ2dnCwuLmTNn3r17F0KYmJhob2+/YcOGZsZn27ZtlpaW+/btQ1BJTU2dPn26hYWFtbX1unXrcHcGqvH06dN2dnYoFinKiYiIsLOzww+HQAjLyso2bdpkYWExdepUVLLbze7o6Lh69Wq0GwwhRFGmieJC1PB/6+rqXF1dd+zYgRDe2dkZFBQ0fvx4U1PTJUuWlJaWdvvwfv/9dzRP4W8xJfodgHH+8EUmnvO1RFdX1w+5i/4J5U7G5xucfO1RX+X/JYD7qqLvl9L31NjZ2fkPCXYxPt9T13eW6XOCxHrRVqKurm7PMyrEYj3TPzqY+y+Ae7aNzIEQ/jIAk9L+exL4+PFjSkrKsmXLeHh4iL7Dv0ftL98iAfyXIupfBUgA96/+6MGNq6srhULpPsu5ZcuWHg/7PoMEcN/L9KdSJAH8U8X7z4nn5ORcv369sLDwa76rf14FkQIJYKI0WCBNApgFOukXskgC+BcKuy+qIgHcF1L879AgAcxifUkCmMU67CezSwL4Jwu4r8mTAO5ribI2PRLALNZ/JIBZrMN+MrskgH+ygPuaPAngvpYoa9P7YQBfuXJl586ddDo9jPz8cglERkY6OztbW1vHxMT88srJCvudBOh0+saNGzMzM782CYFeH1y+fNnX1zeA/PwbEggJCQkPD/f39/83Kifr7F8S6L5NGf3NY6847b6gq3cAf600mU9KgJRAv5IACeB+1R0kM6QEfkwCJIB/TF5kaVIC/UoCJID7VXeQzJAS+DEJkAD+MXmRpUkJ9CsJkADuV91BMkNK4MckQAL4x+RFliYl0K8kQAK4X3UHyQwpgR+TAAngH5MXWZqUQL+SAAngftUdJDOkBH5MAiSAf0xeZGlSAv1KAiSA+1V3kMyQEvgxCZAA/jF5kaVJCfQrCZAA7lfdQTJDSuDHJEAC+MfkRZYmJdCvJEACuF91B8kMKYEfk0AvAG5paamqeFv5toz8khIgJfBvS+BNdVUlHr6vJ7h7AbCfn6+U8mB9yynDzCeRX1ICpAT+RQnoj5sqKqty7erVntBFOb0A+NBB90Uecceew6hC8ktKgJTAvymBuFI4YZXb+TNfDWfbO4DnucVFFcCwR+SXlAApgX9TAjFF0Gap24WzJIDJyYiUAAtKgAQwY/rMhPTcL9+IXIi+tKxfPbmGZ8LwzL9ZKbEJ9D+aQM+B4b+8Fd8wzWjZX+TMxDD6+Y13yUc9JUACGANM4MPmNQE31wbewr4BNzdFJu+My911Mv9wQl1UIfwajLEXkz/pGNlw8fCaz1xLz/mbwPvSK5mQngNpf5fO+rD7X1oReGsDLWFnXO6eM0WByU3faMWX2n9E/0Tk/U0+tx/LIjL5WeZI8oG31gXfDknv6JUlejZ0v/RSWXcUhZNz1pag6MfM0qZnw/0Xnw/UMaBwcjptC+1ZoFeyrJ5JAhjSs+GBK69Abx+t0VZztof73avtFcMIwMPMpwiKSFrN3fwPARyeCYNSWmdsCpzi4hOc1v439LCQqFTPRnBy8w41d3TaGuJzp5qWzTzo/8bwDc+EwWmtE1e5T1vv55/Q8APqPROGpndqjhrfk0k8h5ObNyCpqde203Og2/mnkvKqAIDJaz1jipjbQs+Be889EZdVBgBMdfXpWeBvNLb/v0IC+E8A5uYT0DG0kRukx8nNy06hYAOLjc1i5rqQtLbwLEw9RuRiCpmeAyPzIS0bhmZ0Hbrxdt/F5963a8IZ+jMiF3tK7HhkzeKZ9GwYmfeZFKbH/rBvYx7DXSeyhESlBqjohKS3RuR+JkLL+lyexnjxGyBEAGZnZ+fk5sG/7OyMVgDgsHIfBjaGfR7OoIm1JRtrUWTen8zsz80koD2C0XA6IyciD+67UAIAkB6o6XOnIjL/Dz6zYQSjXYhPvL1EUYRmdNku2qkxwkJrlJXmSEtBEUkAAA+foOqQsdqjrTRHjtMdaxeU0hKR94eI8jD2EJ7pOXAfAcBHnzL6glEpkgmG8HMlEnLMAMY6Kw/rZZT4gRnnR0wSYjN/ZZoE8J8ALKuiQ8+GwSmtAcnNm6NSxAcMRMphz5mikLT2tUG3Fuw5svt0/oErL1f7Xdl5PCc0o2sDLWHpoTM7jucEPmxeG3hzwd7YrTHpn7swE4akta3xv75o//EVXhdCMzDAeFwr20hPnL2dNndn5I5jWQGJjWjduy4ofvSE+QAAESn5uTsjNkUmhz3Cxqjf/Q/Oh6/N2BQ41cVnpfdF7zs1OLaZBgoCsIaBhd/9jwFJTf6JTf6JjSu9L/LyCwEAJGRV/O7XhWdhPASnNW2MSFq07/jEVe7z98SsD3sQnNr0GXIZXeuCby/Ye2TXiTw01sMz4Srfy4v2H18fdj8opXVLTNqYCQsAAMLiA2ZuCtx6JANhw+duzRr/605bQqa6+Kz2u+px/VWvfIakd4SktYemd4Skd+qPnwEAUNEdc+h6edgjiPJDM9r2nn2yJuDG9I2ByzzOIMmjyREH8LT1Xr73apd5nJm8zmu553nvOxVo3uwJ4Mh8eODKy5U+lyav9Zy1NXRdUHxQSuM3JkEmkfb/nySA/wxg1cFR+diUH54Jox/DcbNdEYA3RaZ43qyUVx8KADCauERrlBUAwGre5uDUNuXBowEAY+wXhqR3qOubAQAUNfU9rpdhq1kGXDm5eQEAusYTIvOg++WXA3VG4lqRT5A68rfZQSlttGwoIimHW5IAAK1RVvQc+PvJfN2xE4j56iPMd58q7HUIIgBrj7YKzWinZWO6nZYFowqgrKoOAICdwuF9u4aeA/3ufxxlM4eDkxsnS+HgHGUz58DV0sh86HmrcoCyNgDAesFWzAGWibVCVFoBAKA2zMT7do2eiQP+IgBg5G+zY0vg/ksv1IaOJeYr647Zd+FZL3qYIVvEm4H1LACA6hAj79vVqC56LlzpfUFYfABOSkBEYsamQFoOpj9xAJtNc9YwsMDLaI4c53H9TVTBnzXwY0zxrva7gpqDFx47aak/Y9Ls/+D8Hg5JAP8JwHJqg48+/bwvH5EHh5hOQh3vdv6pV3yVgsYwAAAnNy8PvxA3n8C09X4hae2qjIFrNHFxTBGctsEPlXcNvReZj4251X5XUY5L8O2IXGhg7YR+OqzYN2n1QW4+QQ5OrlV+lyPzoWvYvWHmkwEAYjKKSw6c3HE8OzSja7TdPAAAP1Vs9vbwdcG3ZVUHAwAGG9n0AoxHEAFYc9T48Oz2iLzPlufecyUiUtjUoDt2QlAKZplbOq1n8MCmpDNywe4Y3bF2iKXxczbQc79g4LcF2+gM8xUHsLq+WUBS0++nCqUU1RmWgty83dG7TubTsqGeyUQAADefwHKvc2sCbqICRhOXhKb3vphHU+RnAOsZesVX0bIxM97rdo2IlDwAQEBYfPa2sJE2cwAAcoOGuF8pjSr4AmBuXn5l3dFOW0IUGFMqAGDKOm8MwOe/mNBHn8L9l1/KDdLDKKgPcfa/Pn93jABVHAAwafUB3PL/HpD05zIkgP8EYFFphVU+l5YfOrvC67zZjDUcXJia0jCwDHz46dDNis8A5uJZ6XMRDcGApCbVIUYMtbw4Ig8evPqGV0AYADBxlTu2vMyDSF/JKGv5PfjofbvGaVvYVFffdUG3jxRDek6znjGmzYZbTo3MgzGP4YTlewEA8upDQ9PbYorglpg0PkEqpurnbz1SDI8+hQvdYjHbVWLA9mNZPQ1UBGBhiQEzNgXM3BxkPX/LGIeFgqLYOpPCwbFo//HoQszNIyGnAgDQM3HwT2yMzMMUrOoQY8Zin93zVtW+C89QgZ4AHjTcLCilJfYJVB1iiKFCTc/3blX0Y7jjeA5q9aTVB6MKMMtlbeANAAAXD//ec096nWt6BTAtCyM1ZZ33jE2Be88UnXgJPa49Q+vkhW5HY4rgvgvPkBNLXd/M5867qALoFV8lJCbNMFjGh6Z3Mpj/vAaOewHn7oxAE+5yz7NHiuGRJ9B6wVZM5+sZBSZ/+m8shkkA/wnASBcR/5VUUNsQfj8yD3pcL0MA1h7zm39CHdIYRAAjI1DH0AYAoKAxLOxRp8/dWgQG+2V7sP3PHMymdQm5Y7dkl+GEBaPt5qE1tu7YCaGPMHvPbsnvGIAHDQl82BxdiK08ESfy6kP1x03THzdNRc+QjY2dwsG12P1Ez5NwCMBE5lFaVmXwwn3HAhibSWsCbiCw2S7ehbQQPQdOXLUfldwa+8jnzjtkc/62YDuTBsYA/LAluhCq6GEAllXV9bxVGVUAV/pc5OTmQVPPcMupwy2nahhYAjY2AMAGWuL3AziMIYTApLolB06az1gzxn6BgfUsLh4+AMCsrcHRhV8AbDHLJTwLMzEicqGipj6msaniAUlNOICnufoefQonrz0EAODg5NIYYT7ccuoIqxmoaTIDtfZffN4rY/1Z2fbKGwngPwGYg5NLQk5FXFZZVFpBXd9s5uagA1dfISeNx7XPADZ0WIxGT3gWZAIwPRcuP3QGm/W5eDyulc3bHYV5WfmFXMPuxDyG3rdr9MfPoHBwYtYmr4AgVYKTCxv3usb2aOwSANwSVQCXHDjJwBUbN58An5AIn5CIgIi4iKQsv5DozM1B0YV/8nWH/WFCS8qrOm0LnbcrcuIqd7TYVte3QO7u6EI4ZwcNYdVxjQfaaKHnwIVux1Dmat/LoemdiloYJKznM6+BewVw9GPotC2MjZ2doXL5EJ/8wmIiknJColLO/jd6xUnvGjgbbot9JKuig9jmExThFxZDlGdsCiQC2GHFPjR/0bPhcMup2AqfnXI4oX7fhefICz3N1TemCI6bjS0W2NjYefiFGIxRBUUlhcVl5NT0tkSnRuQxC7BXhPTzTBLAfwKwrNrgmMeYqsS/n7coGO4opIGNHJdi6jcTW7MxAzgH7rv4TFhcBlMam4MtZq4FAOgY2oSmd0Y/hov2H0c4GWE10+fOu8MPPmiMMGesTu1CM7q+aGD1oUEprdGF0PnwNVR+3JwNwWntfvc/+ic2Bj5s8U9sCExpQRtCxOH1hxPLOjwTWwPTsjpNpqxg2M+cC/YeiczHlLxLyG1+IVEAgN2S3z9r4Fxou2QXVhEb28643OC0DgRgY8dlYRmd3Qtg/4QG5FViArDcID2vW1VRBXBNwA2kJyev9QpIavrCZ1JTUEorkUM83SuAI/MhWvSyUyjTN/iHPeradiSdT1AEW0TM3UTP7UUD07KhmIwiwyUuE5j8CdfAU119jj2DU10xlwQPv9Aq38uByZ+Qc54hwMbgtHacGZZOkAD+M4BVB0f2NjHTiQCetORrAEbj0nTqSgCApJzaABXM/Tttg19UPuYNnrzWCwFy8hrPY8/hhvAHXLz8yA17+MH7qAJoxwCSpIKax/XXMUVwZ1wuck0PNZuEba7mw+1HM6e5+jofvu5z933PJRwCsNao8SGMcyARuXD/pRIZZS1sz1ZJ0+3Ck89KTGEQAEB7tLXvvQ8ReTAguQl5erj5BDxvVtJzoYruGIYvTWnPmaKIPExpI6uBCcACVPEDV15GFcADV18j55DRxCXhWV0RuXAjLXHm5iBn/2tfO5XRE8Bo83nQcFOkyXcez4ktgbaLGTMLAJZOLpgTq8caeO+5J6jq4RZTwh5hXi58H/j4C7jQ7SgS+LT1h2OKYHhm5xr/61PWeW2JSQt62NrrcRGWAzMJ4L4EcNgjGF0IF+2LxTeKBEQkPG9WYAcn8uHawJu8AphTSmyAkqHDIl4BYVFpBQqFQ4AqMf1/7V0HWFRH174sSxfpXSkhKlWliYkQRZEmoNhQUYg1omBvMWoUVFRQRIMiGmsUe43GGhUQkKb03hGkSt2Fhd35dzlm/vsBlkQwLrn38fGZnTv3zNwz9505c2Y475oDvyahyd674IMzHjvFK+j20RdvjUCCEDAYZW/3/Qa6kDD4n36Jaun6/XUCMM8sT0Ez1v0i0LEc/cbRPTSh/XgyspmzFmpR0dJzXLhFRUsXfjov9jmayHO8TV/91pcuraDK3aER6ycFnmEA8PEUZO32dndtpMOcJftuHn2Bxkxf2jGFCwz7buKY6V6wJDaznfkuX1FXAIPPz2HeJmiMuo7x8DEThUXFZTsmWHVdk3W/Ru68WQBOLBFxCVVtA1uPDTJKvP0tgiC+33bqZNr/eKHPZKO9DythY09YTGLcrBVDv3MCg3yi5/Z/fF71S0M4BeCPA/BLtOt2Md4H/v8ZOKJJy2AkQRDfOHrAYu/oC95aF/Z7CIIws50JRnjHuUvmWNdl9I51L02QbumycM/dV4Z/7eIEPKjcHPZSsWN6BNf00Rdo36Pq76Z40gR5y2beflJ/GUOLCTtvFuDzW+TvCQA8xNTqUMzbzZvQBBQSx+ZuHcPjC3ee/zWJN+Vaz14t3p9nmsIlLCJu9/2GfQ9fg2du992yYaMniYpL8iZDMYmZGw6b289+67yNYh57ibZeSh84eDg8O3zMJGjnt85zRcT6Qaa4pLTxuKnbLmd0uwA+Et+xxZWAzGxnwkEO/3tvq955q/Arw28EOk6PSfSXdV17YNvljP4dSxItA/Ndt4vBKWg13cvQYgLURaMJjp+95kBEw/Fk5HMlU16Nd/YGjlIee4l++i1e13w8lOzY+lL/1nkuz7D/p38xQlb4l5CmAMz7mH6JalkZ8ufKkEc/no7taprCBxcc3bLxTNzy4PvbrmTi2S8klv3T2cSVhx/5XP7/zKMv0KZzL1YefrQy5NGuOyW48NFEdCC8YcPJmB/8r6w/ER0c1fxrEtp1p3hlyJ+rQv4MjmrhGb03cqAlvtdyjsTz9ngOP2etPxH9w54ri3Zd2nI+KSi8vlv0HolH644/W3n40eYw3vkw/G2FJiK/3ws7ZP659VIa72BGIgpNbP3pbILn3uvzd4QtDbz105mE0EQOPhzCW/dGNK379Znn3uubz708/LzF50rmisOPNp19ERLHhlbtvFkIL+hzJetIPM9lEBLL2HDy+Q97LnvuvbH5XNKBiAYsEDemU2LrpfTlwfd/Opt4KOatQXs0Ee25W7bi0EPPvde2XkoPiWWFJrC3XEhecejBxt8SgqNbNpyMWR58f8/dkoD75d4H7szffm710fDgqGYYUg8+a17fUWDX7RKo/dckFPhnzaqQx4t2XfLa/7vv1WxYX3RqCf/+pADMc0WGJvCszeMpPAPyXX0JmxbHU3kfK7kM7+BuCu9P5P4nM+mtwE4fcWiHjfprMq8iGCngWPXxjuNfPCT89SCuhVdvR8M++BeOx7trCaAL3u5/ZHa0AQ5C885C/++MFNqxic1rZ8dZDmgVWTm42WSZxztkwv/djoNkFb192dSOKkinjo++5CmHd6z6r1PQvEZ2aCA0npd/PJU3rsGJ604HuXm6+qsArgsOk/O099fr4Ft9IEEB+H+A1wd6lHqF/5QGKABTAKY0wMcaoADMx533n5pqqJftVgMUgCkAUxrgYw1QAObjzut2SKYy/1MaoABMAZjSAB9rgAIwH3fef2qqoV62Ww1QAKYATGmAjzXwTwDsv2vn7G1hR5NRcCz171/QQEgCCn2Bfnn+L1RN9fiXpoFfU5Hdwr/JzOC3c+eh42F1bFTeSP373BqoaUVX70dtDQipp/RPfX6NqBGhtZt8L136O9QqO3fuDAsLexcbGpXf2xq4ffv2jz/+2Nu1UPL5RQO+vr4XL1IA5pfuQogCMP/01edoKQXgz6HlHqyDAnAPKrMPiKIAzGedSAGYzzqsl5v7OQDc1NRUXV1d03HV1ta2trb28kvxxMfHx8+ePdvV1fXVq1e9UV1MTIyHh8fixYszMzN7Q/67ZPIvgOvr6/FnAB8D/r+6urqhoYHD4bzrran8d2ngcwB4/fr1EhISSkpK8vLysrKySkpKenp627Zti4uLY7PZ72rZ382vrKx88OBBdXU1PHjt2jUIxZCenv53RXVb/vXr1+Hh4RUVFXA3LCyMTqfLyMg8efKk2/K9lMmnAG5ra3NwcBAXF5ftuBQVFZWUlBQVFeGnuLj4tGnTGhoaeklp7xLLYDCePHmSnZ39rgJffv7nALCnJy88IkEQsrKy6urqUlK86OcEQUhKSgYEBPSUjhYvXswNRnPr1i0QWFJScvbs2dOnT9fV1fVIFZ6engICAufOnQNpRUVFYWFhly5dwpDukVo+KIR/ATxp0iR5eXk1NTVVVVXBDu44QUFBtY5LTk7Ozc3t8wP4+PHjBEEsW7bsg2r/Ygt8VgD7+/vn5+dHRUUdPHhQV/dtOLVVq1axWCysoJaWlpycnPDw8LKysvb2dpwPCTabnZubGxkZWVNTgy2u5ubm7OzsgQN5rBwnTpyor69va2tjsVg1NTXV1dUgpKmpqbS0tLy8vK2tDSFUUlKSlZXVdf7ncDjl5eVRUVH19fW46paWlvT0dDMzM25IuoMHD9bU1LS3t7e2ttbU1NTW1oJA3Lyampr4+PiEhIQ3b95gCQihpqam4uJiaACHwyksLOy2AeRHuk3zKYA5HE5eXl5ycnJqamp8fLyxMY+nRlVVNT09PSUlJTk5uaCgAHrqzZs3z549q6ysJL8+i8UqKSl59epVa2srm82ura1tbGyEAi0tLZmZmRkZGSwWi8PhvHr1qqSkpKmpCT/OZrMrKiqioqJSU1OZTCbkt7W1lZeXT5zII8dYsGBBXV0dvoUf5IvEZwXwhQsXsFIyMjIMDXlkP1JSUnfv3kUIcTicR48eff311zA8CwgIWFpaxsXFwSMcDufMmTNffcXjzuBF3KfTLSwswsPDEUJBQUGQCf9raGjk5ubeu3dPUlJSSEgI1qhHjx4VExMzMDB4+vSpvb09jUYTFRUdN25cTEwMbtLNmzeHDh0qIsJjVJGWlp43b15ubi5C6NdfeSQd+BIRESkvL79+/bq0tPTAgQOfPXsGErKysqZOnSoqKkrruERFRV1dXfPz8+FuaGgoLwr00KEPHz50cHCABlhYWPxdC5xPAYyVjBBiMplWVjwiOE1NTXJ+dHS0lZWVmJiYgICAuLi4o6Mj7p0XL14ICgrKy8ufPn3a1tZWREQkODgYdWyqDRkyBLpMVVX10qVLioqKQkJChw8fBsnZ2dmTJk2CL4pGo8nKyl6/fh0hlJCQAJE0oVsFBARu3LhBbgy/pP81ACOEDh8+DOrbvXs3QigiIkJBQYEgCCMjo59//tnCgkc7NGTIELCBs7KyZGV5Qcnnzp27detWJycebd/QoUNLSkqioqIcHByEhHjRG+3t7X19fWtra2/evAkRVWENHBwczItLKCOjr6+voaExfPjbuIrjx4+HyTYnJ0dZmUe0Iyws7OHhoarK48j7/vvvEUJxcXHOzs7CwsICAgLW1tZr165lMBgXL16k0+mysrJPnz5FCBUXF8OsIigo6Ozs7OjoSOvgKzA3Ny8rK0MIQQPk5OQGDx6spqZmZMTjOiQIYuzYsX/LdOwbAB49enQnANfW1mKduLq66unxIlqbmZkBkABvQkJC+vo88kQajXbs2LHm5uYBA96yOo4dO9bc3Lx///7Q6UFBQQihlpaWESNGEAQhLy+/Zs2ayZMnCwgIiImJ3b59u7a2ds6cOfLyPLqzYcOGrV69OiUlhV9AS27nvwngxMREwMyKFSsQQuvWreNR7AwcCHNmTk4O9CJ0hq+vLyyb4W5zc3NAQMC+fftKS0sRQjExMf3784hw8Rr4+vXrZAAfOnQIEGVra5udnV1ZWenhweP+4zK+Q88dP37c0dFx8uTJly5dQght3LiRx2ymowMejvDwcFlZWTqdfv78eVDfhQsXhISEZGVlIyIiEEK7dvGiOgsLC/v7+7d1XFu2bIEaYTY4dOgQVGdvb5+dnV1bWzt16lQer0+/fg8ePCB3yfvTfRXA9+/fd3Z2njp1amhoKELowgUes0z//v3BQgEAAxSDgoJiY2OZTOaRI0dAw6tXr25oaKirq/v+ex7HMtfbcuDAAYTQb7/9RqfTuTFxf/vtN4RQW1ubtbU1QRALFy5ECL1+/RrgDZ/f+9X+xd79NwGclpYGI6i3t3d9ff348bwQvpqamufOnTtx4kRISMiwYTx6yClTpiCErl69Cn2jr69/9OjRBw8eVFVVYbU+f/4cfGMfBPCpU6fgqYcPHwLCwQ5HCDU2NkZHR9+7d+/hw4cbN26EKf348eNgHcjJydHpdLwKwACOjIxECLm58ahDtbS0CgoKQH5SUhIMT97e3mRzY8+ePVDgypUr4uI88i7cJPw670n0VQAjhFpbWxMTE+93XAcOHACDa/ny5dji5cV8njYNK2fevHnwSfzxxx+Q+eTJE4A0ABjGaCkpKV9f3zNnzpw9e9bWlsftbGBgUF1dXVVVZW5uThAEBWCs0u4T2AuNv34od+/ePUBdUFAQg8HAFhT0Cv5/woQJCKGGhgYwgSBfQEBg5MiRvr6+YH9+PIDv3LkDtWdnZ0NnX7t2DfaNJ06cCNM4rpogCJg/IyIiAMBdZ+Bnz54xmcxRo3icfcOGDcMqqKurGzRoEI9dZfp0DGAJCQmoDiGUmJioqMij/6QAjBAqKChYuHAhKISs/0WLFpEBvGPHDqxhALCamtqLFy8gs6CgAIZdAPDMmbzY8V0v7iqpoKCgurqamoGxMt+XeBeAlyzh0QhxZ92TJ0+yWCxw82praz99+vTJkyfZIAHjAAAgAElEQVRPnz6Njo6OjIxMS0sDhzOM0IGBgZaWljB3EQTx+PFjhNA/AHBmZiYAOCQkBCE0efJkWFz5+vrm5ORs2vSW5oMMYO4aDAxssPHAhH727FlbW5uNjQ2Pc0hfHzszCwsL1dV53B/z5s3DABYXF79y5QooKzk5WUlJiQIwaGPz5s3wMSxYsCA1NfXUqVMAxU4A9vHxwZ8aAFhCQgLbUBEREeCvAgDPmcOjCJeSkgoNDY2Kinry5ElUVFRMTMyTJ09aW1spExpr8gOJrgCurKyENS04KmDPgOud4lF4fP3169evwVeZlJSUkZEBO0aFhYUPHz6EWwih2NhY6KpVq1YhhKKjo2HyxJP8u9bAeAbGAD527FhxcTG4xK2trWH7x8vLC74nAHB4eLicnByXtezQoUPwttiEhjXwypUrYYWGPyZsIYPNDGtgMoCTkpIoAIMyGxoaHB0deUwr2tpZWVkIIXDaEwTxHgD/+COPsJvrGdm7dy/I2bZtG+QAgH/+mUe5TPaM5Obmvnz5Erbuy8rKYAb29PT8wBf8Bd/+rGvgUaNGubu7z5gxw9SUR0ILu0HYKD16lMdeKygo6OTkdPv27Tlz5igqKg4aNAjcvJs3b6bRaN99911cXFxpaenBgwdhBQsTWlpaGiyZrK2tnz171tDQ0MkLjZ1YXQEcGhpaV1f37bc8Vj4pKakdO3YsW7YM/JM8luo1azgcTmJiIkyno0ePfvz4cWtr68WLF2EGBsTeuXOnXz8eOdDQoUOvX79+4sQJ2OhWVlaGfSbwQlMAhqG5kxeaxWLBelVISGj58uXbtm3T1NSEL8TFxaW1tRU7scgzcGpqKnS6oqKip6enu7u7hASP8BE7sXJzc2HYNTExuXr16v79+7W0tKSkpGBIraurg2YMGjToypUr4A39gqHafdM+K4BBufC/hISEkZHRw4cPcbsaGhoWL14Me3oATmFh4QULFsBJiaysLH19fQEBARqNJizM4+mj0+nz589nMBiwhwwOCfBU37179/bt21ARbCPt3/+WdA8DOD09HUzogwcPIoS2b98OYkHyvn378HC+ePFiJpM5adIkECgsLBwZGXnhwgVBQUEpKak///wTXmHr1q1gBUDjeUSEcnIgHG8jiYqK4gHrP7sGZjAY33zzTadtpDNnzuBlEUEQ3t7eJ06cEBMT47GN29lFRkaC8jdt2oQ/GITQ7t27JSUlQeGSkpKLFi2C7ycwMBCKHTt2DJ/8AwmWlpaFhYVwd8WKFZDJ3RPetm0bWTK/pD8HgC9fvrxkyZKVf13Lly/ft2/fgwcPuj3kePnyZU9PTw8Pj3Xr1t29e5d8SKu4uPjUqVNLliyZPn360qVLr169WlNTgxVdWlq6bt26ZcuWbdq0qaioKCMjY+XKld7e3mB1c6flVatWcZ/FR6MrKipWrVq1bNkymCGbmpouXbq0aNEiT09P8GoymcxNmzZ5eXnB8cmioqL169eD/NevXyclJa1Zs+ann37Ky8vDbbh//76Xl9fcuXPnz5+/du1afA4BIRQZGckdCNavX5+cnAzly8rKtmzZsnjxYnxYBct5T6IPeKHb2tp++eUXLy8vX19f/Katra1//vmnl5fXwoULT506BYfk9u3bt3Tp0uDg4Pz8fG9v7xUrVty/fx8/ghBqb29//vz59o4rJSUlKysLVs5nzpzBxSIjI1etWuXu7u7l5XXhwgXYloe7ra2tu3btWt5x4QM5+EG+SHwOAPe4IvAhyh6X/OUL7AMA7ikl19fXnzp1atu2bRcuXADAg9FEo9HwKNlTdX2xcvgSwF+sNj9DwygAYyXX1NRgZ8qkSZPc3NzAlp4wYQL5KDsu3ycTFID5rFspAJM7LDU11d3dHdyHcHJrxYoVn/kvtMnt+fxpCsCfX+efVCMF4E7qYzAYycnJzzuutLS0rn9h1ql8H/tJAZjPOpQCMJ91WC83lwJwLyu4p8VTAO5pjfK3PArAfNZ/FID5rMN6ubkUgHtZwT0tngJwT2uUv+VRAOaz/qMAzGcd1svNpQDcywruafEUgHtao/wtjwIwn/UfBWA+67Bebi4F4F5WcE+LpwDc0xrlb3kUgPms/ygA81mH9XJzKQD3soJ7WjwF4J7WKH/LowDMZ/1HAZjPOqyXm/uFApjD4Xw8BxqHwyHTI3xQYx8vGSHEZrO7/etFBoNx584d/NfFH6y0pwpQAP5ETRYUFJw7d+4zE+J8Ypvf8/i/A2A2m713714nJ6fExMROjWtoaNi+ffuUKVPs7Ozmzp0LpA2dyuCf9fX1AQEB06ZNc3BwcHd3f3+A5ebmZj8/v6lTp9rb28+YMePEiRNYTreJkydPzpgxw9HRcebMmb/99lsn2D948EBBQQECDsPjV69edXZ2Pnr0aFdpTCbT39/fycnJ3d3dx8enE29I1/LvyelLAM7JyXF0dHx/F79HFf/sFvBsPHr06J89/qU99S8AOCsry9bWFiJu3759m6wRBoPh5OREo9FMTEwmTZqkpKQkKSmJ49SRS0KgWYgbamho6OHhoaysLCEhQUYUuTybzZ42bRrErJo2bZqWlhaNRtu3bx+5DE6z2WyISqmtrT137lwNDQ2CIH7++WdcgBv1f8OGDUJCQjCQV1dXr1y5UlRUlCCIxYsXk4shhPLy8gwMDMTFxW1sbMzNzel0+vTp0yESUKeSH/OzLwE4Ojoa6KY+5sV7qsyJEydwMNOekvkvyvncAM7Pz1dQUBg1ahSEEcURqkAFe/bs4RLYQEhBhNCbN2+44ciGDh3abcAxCN6/ZcsWeLaurs7KyopOp5Pj7GDN/v7770JCQmvWrIEcBoNhbW2trq6empqKy+DE/fv3CYLAwQpbW1shbjsETIQY/9OmTTMxMYFHLC0tlZWVgYrhhx9+wHIgMX/+fFFRUQh/ixDat2/f8OHDk5KSOhX7yJ99CcAxMTHcUJ6//PLL+9+9sbGxrKzsPaukbtc4XHoNFotVW1vbSTgF4J1hYWGdlPLxPzMzM729vRsbG58+fUoQBBnAbDZ73Lhx6urq5FhZoG4cCA5XxOFw5s2bp6CggAOUIYROnTpFjiGKC3Pjhnt4eMjKygJZGeQ/ePAAx20nlwSSFwEBATJZzp07d0RERPbv3w8ls7KyBgwYsHPnTvi5Zs2apKSkN2/eCAkJQRhULDAiIkJSUhKPBQihurq68vLyTgY5Lv/BxH8KwNnZ2S4uLubm5sOHD7ewsFi3bh0Ouw3uie3bt9vZ2Y0ZM8bDw4O8rE1LS5s3b56VlZWZmdnkyZNDQ0Mx0yUF4E8CMIfDAVU+fvy4E4BLS0v19PT09fXJH3F6ejpBEMB+Rs5nMBgqKipOTk7Nzc04PzY2VkVFZd26dTgHEu3t7TY2NhoaGuT8yspKgiDwBI5vsdlsW1tbU1NT8geRl5c3ZMgQFxcXKHbnzh2CIKKjo7F84Nqh0+mdAHz69GmCICIiImpra+Pj42NiYrq1JnDtH0z8dwCckZGhrq4uJCRkZWXl6+s7ePBggiBmzJgBKqqvr3dzc6PRaDY2Np6enqqqqpqamhBFsLGx0cjISEZGZu3atf7+/kOGDBESErp8+TI8SAH4kwCMP9BuAWxgYABMSLjY69evuwVwY2MjdGdLSwsuXFxcrKur6+bmhnMgUVlZaWpq+tVXX5Hz37x5A3HDO8VwaGtr09bWdnFxIS9TS0tLDQwMdHV1QcLGjRs1NTVLSkrIAl+/ft0VwAcPHoRl3rBhwyDiqaamJtC1kZ/9+PR/B8DAB3DkyBGwkBsbGx0dHTEXXEhICEEQx44dg7svX77U0NAAIqXnz587OztjwprS0lIdHR0LCwtQMgXg3gJwZmamtrb2ypUryV9zRUUFQRBr164lZwIRGdDMkeFXVFQ0aNAgvDTFj5SVlQ0fPlxbWxvnwAKbIAg3N7dO1mxLS4ugoKCLiwt5bicDmMVi6enpzZ8/v9PSq1sAA+WitrZ2aGhoXFzcxYsXgdmUHBCb3KoPpv8jAG5qarK2tpaVla2ursY6AXPG398fIeTp6SkgIIDH0La2tsLCQmCWa2tra21tZbFYTU1NDQ0Nr169MjIyGjBgANylANxbAC4uLtbX1581axbuMIRQSUkJl7YTrzbxLZiBZ86cSYYfzMAzZ87ExSDxnhl4/vz5eHUEhVkslqamZqcZ+NWrVwYGBmDeFxYWkuk8cF3dAnj79u0EQXh5eeFiYWFhBEFMnjwZ5/ytxH8EwK9fvzYzM1NVVSUrJy4ujiCIjRs3MplMHR0dMzMzsrsEl2xpabl48aKJiYmsrKyioiKQTqurq2dkZCCEKAD3FoDLysoMDQ319PRwT2BaOj8/P3Im18/EYDAUFRUnT55MNnQTExPV1NSALYlcnsViWVtbd+KDh7l98+bN5JLgGrG2th49ejTZgQlr4KlTpyKEzpw5o6qq2jUOeLcABhJz8nxbUlKirq7+3Xffdar3I3/+RwBcXl5uamraCcCxsbEEQWzevJnJZGpqahobGwORVSfVAe3O+PHjT506de/evRs3bgwePFhVVRWiVVIA7i0AI4TGjh2rqalJtl3Pnj3L5bwiB9qH3uJwOG5uburq6mSfEKyLut03nj59upycHLkw7BV1uxxdsWKFoKAgeYcJdqGARMvGxmbYsGHktTc0qVsAX79+nSAIMilmXFycjIzM2LFjO312H/nzPwLg5uZmGxsbWVlZ8jB67NgxgiCA2QiYB4uLi0Fv7e3tuR1Xa2vr5MmTxcTEMA9efn4+ABh2ASkA9ySAMbEQdMPu3bvpdDoQAiKEqqurjY2NDQ0NYanT0NCQkJCAcQXYDg4OhmebmpomTJjQr18/6HIg3cjLy4OV6q1bt8TExLZv3w6FuVzetra2eB+YxWKlpKTgcP6AbTw5s1is2bNnEwSRlZXV0NBgYGAwZ84ckEP+/82bN3Q6nWwtc5dqFRUVI0aMGDhw4KtXr6AwbIBv3bqV/OzHp/segLs9u8btfS8vLwEBAbwDVFNTA/0L7CrgHTxy5AiQ7yQlJcnKyk6ZMqW5udnJyUlSUhI2nNrb2318fAiCUFNTg713CsCfBOA//vjD1dXV3d3d2tqaIIgxY8bMmTNnxowZgOTa2lpbW1tFRcVZs2Zt2bJlxIgRIiIiePqNjIzU0NCwsrKCz72qqgpOdM2bN2/z5s3A0ItXyw0NDTIyMj/88AMskplM5sSJE2VkZKZNm+bn52dpaUmn0zFTVnl5+ejRo83NzUFyfX29i4sLQRBz5szZvHmzk5MTQRCrV69GCP3xxx8yMjKY4xchlJ+fv2jRolmzZgH/+Ndffz179mzuhH/w4EH4ti5fvszlNNPR0Vm+fDlwiKupqWE8fzx0oWRfAjCcxDI1NZ0zZ47bX9eMGTPALMrIyFBTU+vXrx/XLfLzzz8D/zt2kZSUlJiYmBAE4erqunr1alNTUykpqfj4eITQjh07IN/X13fMmDGWlpZr1qwRFRV1dXWtrKyEwwKdZo6/2wtfTvnPfRIrNDRUXl5eVVV14MCBQ4YMUVdXV1VV5dKInj17FpTy6tWrWbNmqXZc+vr6ZHs4JibGwMDA0dERq6+mpmb58uXKysoqKipfffVVcHAw9mk1NjZqaGisWLEC06NVVVV5e3tramoOGDBAV1d39+7d+FZFRYWDg8O4ceOw5Nra2rVr14JkDQ2NoKAgGNEPHz48YMCA8vJyXDIpKUlXV1dJSUlNTW3w4MFaWlqqqqqysrKLFy/GZvb169eHDRumrKwsJydnY2ODp3os5OMTfQnAL1++1NbW1tDQgO6G/xUVFfFeelpamp2dnZKS0sCBA5WVlX19fRsbG7GuioqKnJ2dVTouNze3uLg42JKoq6uD7d+BAwdOmjTp+fPnHA7H3t5eTU0tPDz85s2bysrKZN45LJAfE58bwB+pIzabTV4Jv/8pFotVV1dH3k96T3kOh9PU1PSeAuRbbW1tnSQzmcyGhgZymY9PNzc3f3zV7xLblwD8rnfslN/c3EzGbae7rR1Xp0yE0Lvyu5bk65wvFMB8rdNebfx/EMC9qk9+F04BmM96kAIwn3VYLzeXAnAvK7inxVMA7mmN8rc8CsB81n8UgPmsw3q5uRSAe1nBPS2eAnBPa5S/5VEA5rP+owDMZx3Wy82lANzLCu5p8RSAe1qj/C2PAjCf9R8FYD7rsF5uLgXgXlZwT4unANzTGuVveRSA+az/KADzWYf1cnMpAPeygntaPAXgntYof8ujAMxn/UcBmM86rJebSwG4lxXc0+IpAPe0RvlbHgVgPus/CsB81mG93FwKwP9cwfX19R//N4//vJr/fZIC8P/q48v61dra+ubNG3L0eXL72traamtr8V+Jk2/94/QXB2AWixUVFXXq1KmAgICrV68WFRW9593YbHZcXNzp06f9/f2vXLmCIyR1+0hbW1tMTAwUvnDhAg7N021hhFBqampYWFhgYOC5c+cgHhq5JAQiDg0NRQhxOJy0tDQofObMmU/5e31yFd2mexzAGRkZhw8ffvz4cacouQwGIyQkJCIiolN+a2vr8ePHjxw5gqNVMRiMq1evhoaGHuvuOnr0KJkQo9uX6jOZZ8+eFRERgahdXV8KyEC6DcPWtfBH5nxxAPbz8+vfv7+YmJiamhpBEFxqjPfgISgoSFRUVEJCQkdHh0ajGRsbp6WlvevN9+7dKy0tLSIioqGhQaPRNDU138Nm+Pvvv6uqqtLpdH19fWFhYVVV1d9//50s2c/PT0xMDOKk3bp1a+DAgQRB6OjoCAoKDhgwgBxzh/zUp6d7HMCHDh0iCEJBQSE7O5vcvPLycoIguobdvXv3roCAAEEQMHghhMrKynR0dIh3XydPniRL/vT0xo0bO9HifbrMHpGQmpq6Y8cOTNnRSSbEWsMEPZ3u/rOfXxaAr169CpGoSktLq6qqnj59Ki8vP378+G4DMjx69IggCAcHh8LCwrq6uoiICBUVleHDh5MDzWKlJCUliYqK2tnZ5ebm1tTUJCQkqKurGxkZkflTcOGXL19KSkqamZnl5OS8efMmPj5eT0+vf//+ONAhN2D1/PnzBwwYgBAqLi5WUVH59ttvU1JS3rx5k52dPXz4cByFGMvsqUSPAzgkJAQAOWnSJHIjAcCLFi3qFDfb2dlZXl5eS0vL0NAQyre3txcWFmZmZmZlZRUVFRkYGIiJiZ06daqwsDCr46qvrydL/sR0Y2PjkCFDukYahpDAnyi8Vx/v+wCeNGmSiooKOfjrzp07xcTE7t2711WzP/74I41Gg2jdcBciFcbGxnYtvGLFCklJSXIw55MnTxIE0S0daUBAAJn6CCEE0djPnTsHkktKSgwMDIBEwt/fX1xc/MaNG7jSyMjIjyHdw+X/VqLHAXzgwIFvvvlmwYIFYmJiZG10C+CkpCQVFZUNGzYEBgaKioqS413jtzA1NZWQkPhg1LisrKzQ0NDNmzcHBgampKS8ePHCz88vLy8P5NTW1l66dMnHx2fZsmXBwcHYsALWMgkJifHjx2/fvh0+FQ6HA4W5RJC7du26e/cuhEZ79OjR/v37cQCz5ubm0NDQ48ePY89FQ0NDQEAAEBQ3NTVdu3Ztx44dXl5eQUFBmLk6Ozt727ZtnczAlJSUPXv2RERE4LeGREZGRmBgYFxcHPwsKys7evTo8uXLt2zZcuPGjbt37xIE0Wdn4IqKimHDhmH+IVABxPLuSuTb0tJiYGBgZ2dHnpwfPXokJSXVbcRWR0fHgQMHkpdzxcXFnSI2Q40cDsfZ2VlfX58cODItLU1LS2v+/PlQJiIigiAIGFamT58uIyODF4QIodraWjI7KTzSU//3OICDgoIsLCxycnIMDQ11dXWx06FbAG/dupUgiISEhOLiYjk5OXd3967vZWpqKi4u/n4G7fz8/JEjRxIEoaGhoaampqenZ29vTxDEzZs3waewYcMGgiCMjIwmTJggJCSkpaV169YthFBcXBwEozQyMpo7d25+fj6Hw4HCCgoKEydOVFZWFhMTAzLnQ4cOiYqKYpKk6OhoOTk5eXn5qKgoaPbDhw9FRER27dqFENqzZw+X2tLExMTFxUVMTExVVRWGs/j4eLAKyR/P0qVLBQUFuw5Sv/32m7CwMHDxMRiMWbNmEQQhIyNjZGQkJiY2ZsyYvgzgkpISfX19cmhIWF+9h9xs5syZZJ9eQUGBjo5OV4rtmpoac3PzbsnNvL29O32C7e3tZmZmEydOxOM0Qgi4kQwMDKBwYGCgpKQk+GZcXFyUlZXJQpqamgQFBadNm/YubyS58N9N9waAv/322/r6+nv37hEEgbmpgFZu4cKF2IQuKyszMjLS1tYGql4nJycNDY2uvsCPAXBQUBBBEEuWLKmtrW1sbASTh06nw+oxJydHXl5+6dKljY2N7e3t2dnZdDrdw8MDdHX27FlRUVEIso8QunTpkoCAwMSJE6urq9lsdkVFhZOTk7Cw8MuXL6uqqsTFxTFjc0BAgIiIiIqKCp4DV61apaioWFBQUF1dra6u7ubmVltby+FwSkpK5OXl7e3t2Ww2i8UCHvnKykpoQE1NjYWFxaBBg7r23fnz53HbwBBzcHAoKipqbW19+vTpgAED+jKAc3JyBg8evGzZMrJegADlp59+ImdicrPvv/+ezPtcVFQ0ePDgkSNHdioM5GbdAnj27Nk4Ei089UFys/b2disrKxcXFxaL1dzcbGVl1YkBhMViDR8+fMqUKXwEYGBFX7hwIUEQ4eHhCKGGhgZ9ff158+ZhAN+8eZMgiCNHjoCiwCDEUfixzj8I4NbWVkdHRy6zXE5ODjxVU1NjaWlJEAQEdmYymcnJyWTeo+HDh+vq6gIXdFhYmJiYGAYh0MeRl10RERHi4uJgLhkaGjo4OMAov3DhQjc3t4ULFy5ZsgQh1N7ebm1tDYMyRPYnE6mNGzduwIABYDlDKGnMOw8j3YkTJ/Ar4wQZwOvXrycI4urVq/gu2C+45Tj/UxJfkBMrPz9fR0cHlItfCeYBsIhwJgawu7s7ju0M/qQhQ4bY29uTSyKEysvLjYyMugVwJwkQjlRaWroTuRmZnbC6uprr9QFDncFgjB8/XkVFhVwjk8kcOHDg1KlT+QjAVVVVCCEgLh81alRzczODwTA2Np47dy4GsLW1tZycXHJyMsxLFRUVWlpa3377LXkVgxD6IIAZDIa5ubm6ujpenSKEVq5cSSZnLyws3L17t42NjZWV1ZgxY6SlpbW0tMBPfu7cOVFR0cDAQIQQi8Xy8PAgCGLkyJGWlpYWFhaWlpZmZmaYSXjnzp2ampq5ubmVlZW6urrnz58/ceKEoaFhQ0NDVlYW95PAn1ZFRcW+ffscHBzGjBkzduxYBQUFJSUl8KdUVlbq6OjguP+bNm0SEREBrkNyvyOEyACeNWtWv379sLmOCej7LIBLS0v19fWxbxNUk5ycjOlwyMpqamoSERFxdXUlm9DZ2dlff/01kMSSCzc3N48ePVpLS4ucWVNTA0xZ5EzwZI4ePdre3p78XQJzorW1NULo7t270tLSsCRDCLm4uCgpKZGFNDU1cXlYOjEnkgt8Sro3TOhRo0bhySc4OBgU3traSgZwTk6OhIREt1tFnXZNPgjghoYGVVVVExMTmPZBG8A4A5tDMTEx0tLSSkpK06dPX9txKSgodAvg5uZmZ2dn7uLZ2Nh4xIgRZh3XiI5r48aNmBzv7t27sJRNSUmJjY0VEBDIycmBLQ+Y84EFQlZWlksru3bt2g0bNqirq2MAw/jCDcofFRXFZDJlZGS6fmPwFmQA29raqqmpkb1fN27c6MsmNJPJHDVq1ODBg8nfN5gr2GzDt9ra2mxsbIyNjWHqgHxgS+p2o9zZ2VlZWZmMycTExG5X1wghNzc3BQUFbOAhhJ4+fSotLQ2WvLu7u56eHv74PDw8JCUlyePxq1evCIJYv349bm0PJnocwAcOHDA0NMS+q7a2NmC3iY+PHzFiBJ6BV65cKSwsvGDBgl27dm3vuPz8/JYvXy4lJYXpTuA1PwhgJpNpYWEhLS1NZvd1d3fnbvsDgCdNmtSvX7/r16+DQA6Ho6ysrKmpCT0CMzDMY+3t7fPnz+c6mbD7upOqy8vLNTQ0/P39jxw5YmZmVltbW11dPWLEiLCwsJ07dyopKUE/Llq0SEhIiLxfra+vr6CggP3JmZmZBEFs27bt2bNnIiIi165d61QR/CQD2MPDg0ajkZ15+/fv78sARggtXbpUQkKC/M6urq5qamrg02ez2QwGA0+5Bw4cIAji8ePHWJXLly8nCAKwxOFwGAwGXt8GBwdLSEiQiVqWLVsmJSUFj3M9mS0tLdjivXDhAvdUxvnz57FkoPmFxaGxsbGdnR2+denSJXFx8YMHD+IcPz8/Op1Orgvf+vREjwM4ODhYWVn55cuXuG3grR09evSwYcPmzZsHrkRdXd0hQ4Z02mOHYVReXp7ssf8ggNls9rx58wiCeP78OVSalZWlrq5OEMSdO3cQQlxbV0dHB48pUVFRIiIiioqK4DALCwsTEhLCew3QNZjjDjyO4eHhePN58eLFlpaWY8eOxd4sDw+PCRMmjBs3bunSpdAAKysrRUXF9PR0+JmcnCwnJ9evXz/ocbDL7OzsLCwsxowZM2rUqHexc5ABvGvXLq6bHS+VmUymm5tbHwdwenq6pqamqanphQsXoqKi1q1bJywsvGbNGlDrixcvbG1t8V5Oenq6esd1/fr1yMhIPz8/Lno9PDyAY6WpqWnUqFE+Pj6wSK6oqNDV1dXT0zt9+nR8fLyPj4+YmNi0adNgOKiurp47dy6eSQoLC/X09CQlJc+fPx8ZGQkjxfjx47kUO8+fP1dVVQ0JCYEmIYRaWlpMTExUVVWDg4Ojo6N/+eUXOTk5e3t7sg8GF/70RG8AWElJ6cWLF+S2gbuFIIXZzsIAAAUWSURBVAigKTp+/DjMP+QykAblwE4M5HwQwAihW7du0Wg0ZWXlX3/99fTp05aWlqqqqngNvGHDBjqd7uvrm5GR4efnp6WlZWpqCqTqDQ0NeXl5ioqKRkZG169fb2pqSktL09TUVFRU3Lt37/Pnzx8/fmxraysjIwNchAihI0eO0Gg0giACAgKghbBjRKatDQgIEBQUXLNmTWZmZlBQ0KBBg2AhvXHjRmziXbt2DVYQPj4+XfUAOWQAp6enCwkJycvLBwYGPn78GMyKPg5ghNDjx4+1tbUJghAVFRUSEvL29sZT7sOHD8XExIyMjLD6YmJizM3NCYKg0WiCgoKurq7YG1lfXw+eDPx4VFSUiYkJjUaTkpKi0+lOTk7g1YQx29DQkGy9x8fHW1hYgGQajTZlyhSYEMAKghOUuBmxsbHm5uY0Gk1UVFRQUNDOzu5dFh1+5B8nehzABw8eVFRUxOcWoGF1dXX6+voEQfzwww+NjY2TJ08mCAKri9z4+vr6/v37W1lZYa5tU1NTMTGxbs944AdbWlr27NmjqKhIEISioqKfnx+QgCYkJIAz0t7enk6ny8nJKSoqhoSEFBUVwWlN2D2CWRcftvnzzz/19PS42JCWlhYUFNTT07t8+TKuC2jfuaMqnvBjY2OlpKQGDBiAh62qqqrp06cLCQnJyclJS0vv3r27srISRg1YS0OrDA0NRUVFycslXAskzp07JyIi4u/vD17uoKAgGRkZgiDodPrIkSNht6zroYZOQv7Wzy/ICw3t5nA4VVVVqamp0dHRhYWF5F0iBoORn5+PF05Qvq6uLjk5+cmTJzk5OeSdWzabnZOTU1FRQd5/r6ury8jIiIyMzMvLIxdub28vLi7GNhtIrq+vT0lJefLkSXZ2Ni5cWFgYERHRlUitrq4uMzPz2bNnubm5n85g9p4u7HEA19fXFxQU4GEOV82liczOzq6qqmpraysqKsrNze361lC4oKCgsLAQr1ZKSkry8vI6GdtYLE60trZWVVXl5OSAL/qnn37inn7BJ1ubm5tTU1OfP3/++vVrqLeysjIrKwvmQy5jc25ubk5ODm42fDPh4eHp6emwl4srYrPZJSUl5G+pvb29oKCgtLSU/EZMJjMjIyM6OvrVq1fgeK+pqcnKysJNysnJ0dDQcHZ2xpK7JhobG/Py8vBYxl2il5SUREREJCQkwF8p5ebm9qxp9sUBuKtSqByyBnocwGThny398uVLDw8P7DTKzc01MTExNDTEo8Bna8lHVtTY2Aj7ut2e6v1IIb1RjAJwb2i1F2X2DQBnZGQMGjQIlhvz588fOnQonU6/ePFiLyrun4qur69ftWqVsbExQRBLly7Fu+L/VF4PP0cBuIcV2tvi+gaAEUKvX7+ePXu2trb2kCFDrK2t7927R17s9LYaP15+RUXF5MmTXV1dg4ODyduQHy+hV0tSAO5V9fa88D4D4J5XzX9SIgVgPut2CsB81mG93FwKwL2s4J4WTwG4pzXK3/IoAPNZ/1EA5rMO6+XmUgDuZQX3tHgKwD2tUf6WRwGYz/qPAjCfdVgvN/efABhCQ3Go67NrgPvXtr///vuGDRsg7sxnr5+q8MvSAELIx8fnPfvnRNfhg8lkLlu27LvvvrOmrs+ugfHjx48aNcrExMTGxuazV05V+MVpwMLCws/P7z37590AuCukqRxKA5QGvkwNUAD+MvuFahWlgY/SAAXgj1ITVYjSwJepgf8D50F6HEH35VMAAAAASUVORK5CYII=;" vertex="1" parent="1">
          <mxGeometry x="-451" y="634" width="320" height="260" as="geometry" />
        </mxCell>
        <mxCell id="RDj6K1EUGKKzCEuKwQeV-45" value="&lt;font style=&quot;font-size: 22px;&quot;&gt;&lt;b&gt;Projetando arquiteturas seguras.&lt;/b&gt;&lt;/font&gt;" style="text;html=1;align=center;verticalAlign=middle;resizable=0;points=[];autosize=1;strokeColor=none;fillColor=none;" vertex="1" parent="1">
          <mxGeometry x="-371" y="58" width="370" height="40" as="geometry" />
        </mxCell>
        <mxCell id="RDj6K1EUGKKzCEuKwQeV-47" value="&lt;b&gt;&lt;font style=&quot;font-size: 20px;&quot;&gt;Criando gateways NAT na AWS&lt;/font&gt;&lt;/b&gt;" style="text;html=1;align=center;verticalAlign=middle;resizable=0;points=[];autosize=1;strokeColor=none;fillColor=none;" vertex="1" parent="1">
          <mxGeometry x="-370" y="103" width="320" height="40" as="geometry" />
        </mxCell>
      </root>
    </mxGraphModel>
  </diagram>
</mxfile>
